<?xml version="1.0" encoding="utf-8"?>
<!-- Generator: Adobe Illustrator 16.0.0, SVG Export Plug-In . SVG Version: 6.00 Build 0)  -->
<!DOCTYPE svg PUBLIC "-//W3C//DTD SVG 1.1//EN" "http://www.w3.org/Graphics/SVG/1.1/DTD/svg11.dtd" [
	<!ENTITY ns_flows "http://ns.adobe.com/Flows/1.0/">
	<!ENTITY ns_extend "http://ns.adobe.com/Extensibility/1.0/">
	<!ENTITY ns_ai "http://ns.adobe.com/AdobeIllustrator/10.0/">
	<!ENTITY ns_graphs "http://ns.adobe.com/Graphs/1.0/">
]>
<svg version="1.1" id="Layer_1" xmlns:x="&ns_extend;" xmlns:i="&ns_ai;" xmlns:graph="&ns_graphs;"
	 xmlns="http://www.w3.org/2000/svg" xmlns:xlink="http://www.w3.org/1999/xlink" xmlns:a="http://ns.adobe.com/AdobeSVGViewerExtensions/3.0/"
	 x="0px" y="0px" width="78.95px" height="95.5px" viewBox="0 0 78.95 95.5" enable-background="new 0 0 78.95 95.5"
	 xml:space="preserve">
<path fill="#D0CECD" d="M32.432,0.064c-17.092,0-30.997,13.888-30.997,30.958c0,5.071,1.255,10.102,3.63,14.549
	c0.72,1.35,2.103,2.117,3.532,2.117c0.636,0,1.281-0.152,1.881-0.473c1.949-1.04,2.685-3.464,1.644-5.412
	c-1.758-3.292-2.687-7.021-2.687-10.781c0-12.659,10.316-22.958,22.997-22.958c12.681,0,22.998,10.299,22.998,22.958
	c0,3.745-0.922,7.458-2.665,10.739c-1.037,1.951-0.296,4.372,1.655,5.409c1.95,1.038,4.372,0.295,5.409-1.655
	c2.355-4.433,3.601-9.444,3.601-14.493C63.43,13.952,49.524,0.064,32.432,0.064z"/>
<g>
	<g>
		<path fill="#939598" d="M7.763,21.989l-1.518-0.53c-0.123-0.045-0.258-0.034-0.376,0.023s-0.207,0.16-0.248,0.284l-0.087,0.263
			c-0.084,0.255,0.053,0.53,0.308,0.616l1.522,0.513c0.051,0.017,0.104,0.025,0.156,0.025c0.203,0,0.393-0.127,0.462-0.331
			l0.083-0.246C8.151,22.354,8.017,22.077,7.763,21.989z M10.166,17.113l-1.38-0.829c-0.229-0.135-0.526-0.064-0.667,0.163
			c-0.052,0.083-0.104,0.169-0.151,0.252c-0.13,0.231-0.051,0.524,0.177,0.66l1.384,0.817c0.078,0.045,0.164,0.067,0.248,0.067
			c0.164,0,0.324-0.083,0.417-0.231l0.134-0.22c0.069-0.111,0.091-0.246,0.061-0.373C10.358,17.29,10.278,17.181,10.166,17.113z
			 M21.816,5.289c-0.106-0.243-0.393-0.358-0.638-0.256c-0.096,0.04-0.19,0.078-0.281,0.124c-0.234,0.117-0.334,0.396-0.228,0.636
			l0.654,1.467c0.081,0.181,0.259,0.289,0.446,0.289c0.063,0,0.127-0.013,0.188-0.038c0.083-0.035,0.168-0.073,0.251-0.112
			c0.239-0.111,0.346-0.393,0.242-0.636L21.816,5.289z M16.739,8.024c-0.075-0.106-0.189-0.177-0.318-0.199
			c-0.127-0.022-0.259,0.008-0.365,0.085l-0.221,0.158c-0.105,0.075-0.177,0.189-0.198,0.318c-0.02,0.127,0.011,0.259,0.086,0.364
			l0.943,1.305c0.095,0.131,0.245,0.202,0.396,0.202c0.098,0,0.197-0.03,0.283-0.091l0.208-0.148c0.219-0.156,0.271-0.46,0.115-0.68
			L16.739,8.024z M27.342,3.658c-0.026-0.127-0.102-0.238-0.21-0.31c-0.108-0.071-0.24-0.095-0.369-0.07l-0.267,0.056
			c-0.127,0.027-0.238,0.103-0.309,0.212c-0.071,0.108-0.095,0.24-0.068,0.367l0.334,1.574c0.027,0.127,0.104,0.237,0.211,0.308
			c0.08,0.052,0.173,0.079,0.266,0.079c0.034,0,0.068-0.004,0.102-0.011l0.255-0.054c0.262-0.056,0.43-0.312,0.376-0.576
			L27.342,3.658z M58.023,27.852l0.028,0.261c0.016,0.129,0.08,0.246,0.183,0.327c0.087,0.068,0.193,0.105,0.304,0.105
			c0.019,0,0.037,0,0.056-0.002l1.6-0.186c0.129-0.015,0.246-0.081,0.327-0.183c0.08-0.102,0.117-0.231,0.102-0.36L60.59,27.54
			c-0.017-0.129-0.082-0.246-0.186-0.326c-0.101-0.08-0.231-0.119-0.36-0.1l-1.596,0.198C58.183,27.345,57.993,27.586,58.023,27.852
			z M7.679,38.369c-0.077-0.257-0.349-0.405-0.606-0.328l-1.542,0.453c-0.258,0.075-0.406,0.346-0.331,0.604l0.076,0.262
			c0.036,0.125,0.122,0.231,0.236,0.293c0.072,0.039,0.152,0.06,0.232,0.06c0.047,0,0.096-0.007,0.142-0.021l1.539-0.469
			c0.257-0.078,0.402-0.349,0.326-0.606L7.679,38.369z M4.675,28.289l1.598,0.191c0.019,0.003,0.039,0.004,0.058,0.004
			c0.109,0,0.216-0.037,0.302-0.105c0.102-0.08,0.167-0.197,0.183-0.326l0.031-0.257c0.031-0.266-0.157-0.507-0.422-0.542
			l-1.594-0.205c-0.131-0.017-0.259,0.019-0.361,0.099c-0.103,0.08-0.17,0.197-0.186,0.326l-0.034,0.272
			c-0.016,0.128,0.02,0.258,0.1,0.361C4.429,28.208,4.546,28.274,4.675,28.289z M6.631,33.737c0.083-0.102,0.123-0.232,0.108-0.362
			l-0.023-0.24c-0.01-0.13-0.07-0.25-0.168-0.335c-0.099-0.085-0.227-0.127-0.356-0.116l-1.603,0.124
			c-0.13,0.01-0.247,0.114-0.332,0.214c-0.084,0.1-0.121,0.272-0.109,0.401l0.013,0.168c0.007,0.132,0.067,0.256,0.167,0.343
			c0.089,0.078,0.203,0.12,0.32,0.12c0.014,0,0.027-0.001,0.042-0.002l1.606-0.139C6.427,33.901,6.548,33.839,6.631,33.737z
			 M12.338,11.743c-0.195-0.182-0.536-0.137-0.719,0.056c-0.061,0.063-0.122,0.127-0.179,0.198c-0.163,0.201-0.14,0.494,0.051,0.667
			l1.189,1.084c0.087,0.079,0.212,0.108,0.332,0.108c0.014,0,0.027,0,0.041-0.001c0.131-0.007,0.27-0.085,0.356-0.184l0.132-0.148
			c0.18-0.198,0.167-0.504-0.028-0.687L12.338,11.743z M59.314,38.561l-1.543-0.458c-0.259-0.073-0.529,0.069-0.605,0.328
			l-0.076,0.251c-0.077,0.258,0.068,0.528,0.324,0.607l1.54,0.471c0.047,0.015,0.095,0.021,0.143,0.021
			c0.08,0,0.16-0.021,0.23-0.059c0.116-0.062,0.2-0.166,0.237-0.291l0.078-0.266C59.72,38.908,59.571,38.637,59.314,38.561z
			 M56.978,17.116c0.032-0.127,0.012-0.261-0.056-0.373L56.78,16.51c-0.139-0.228-0.438-0.301-0.667-0.166l-1.381,0.824
			c-0.112,0.067-0.192,0.174-0.224,0.3s-0.012,0.258,0.055,0.37l0.134,0.224c0.091,0.153,0.253,0.237,0.419,0.237
			c0.084,0,0.17-0.022,0.248-0.067l1.388-0.816C56.864,17.351,56.946,17.242,56.978,17.116z M57.363,23.242
			c0.051,0,0.104-0.008,0.155-0.025l1.524-0.51c0.122-0.042,0.214-0.162,0.271-0.278c0.057-0.117,0.055-0.283,0.013-0.406
			l-0.074-0.212c-0.093-0.249-0.368-0.379-0.618-0.29L57.12,22.05c-0.252,0.088-0.388,0.363-0.302,0.617L56.9,22.91
			C56.97,23.113,57.159,23.242,57.363,23.242z M32.755,2.457h-0.331c-0.129,0-0.254,0.052-0.345,0.144
			c-0.092,0.091-0.143,0.216-0.143,0.346l0.007,1.862c0,0.269,0.219,0.486,0.488,0.486h0.323c0.269,0,0.488-0.218,0.488-0.488
			l0-1.862c0-0.13-0.051-0.254-0.143-0.345C33.009,2.509,32.885,2.457,32.755,2.457z M60.603,33.046
			c-0.083-0.1-0.202-0.161-0.331-0.172l-1.604-0.132c-0.13-0.01-0.258,0.031-0.356,0.115c-0.1,0.083-0.16,0.203-0.171,0.331
			c-0.007,0.079-0.013,0.157-0.022,0.232c-0.019,0.132,0.019,0.266,0.102,0.37s0.204,0.17,0.338,0.183l1.605,0.146
			c0.015,0.001,0.03,0.002,0.045,0.002c0.114,0,0.228-0.041,0.314-0.115c0.101-0.085,0.162-0.206,0.172-0.337l0.023-0.268
			C60.729,33.272,60.687,33.145,60.603,33.046z M43.998,5.168L43.745,5.06c-0.244-0.106-0.53,0.008-0.639,0.254l-0.644,1.477
			c-0.051,0.121-0.053,0.257-0.004,0.38c0.051,0.122,0.149,0.218,0.271,0.267l0.137,0.059c0.002,0.001,0.09,0.04,0.092,0.04
			c0.062,0.028,0.128,0.04,0.192,0.04c0.186,0,0.364-0.106,0.445-0.288l0.661-1.469c0.055-0.12,0.058-0.259,0.009-0.38
			C44.217,5.317,44.121,5.219,43.998,5.168z M53.284,11.841c-0.085-0.104-0.21-0.169-0.344-0.179
			c-0.131-0.007-0.268,0.038-0.366,0.129l-1.182,1.093c-0.197,0.183-0.209,0.492-0.026,0.689l0.18,0.197
			c0.095,0.101,0.225,0.152,0.354,0.152c0.116,0,0.234-0.042,0.327-0.127l1.192-1.082c0.097-0.088,0.134-0.233,0.139-0.364
			c0.006-0.131-0.062-0.279-0.152-0.375C53.364,11.932,53.322,11.888,53.284,11.841z M38.424,3.347l-0.27-0.054
			c-0.263-0.055-0.52,0.117-0.572,0.38L37.26,5.247c-0.054,0.261,0.111,0.517,0.371,0.575l0.251,0.057
			c0.035,0.007,0.071,0.011,0.107,0.011c0.092,0,0.184-0.027,0.263-0.077c0.109-0.07,0.187-0.181,0.214-0.308l0.339-1.577
			c0.027-0.127,0.002-0.261-0.068-0.371C38.664,3.447,38.551,3.372,38.424,3.347z M48.857,7.95
			c-0.105-0.076-0.236-0.107-0.364-0.084c-0.128,0.022-0.241,0.092-0.316,0.198l-0.933,1.311c-0.156,0.219-0.105,0.522,0.113,0.679
			l0.211,0.153c0.086,0.062,0.187,0.092,0.284,0.092c0.151,0,0.302-0.07,0.396-0.202l0.944-1.304
			c0.076-0.104,0.108-0.236,0.087-0.365c-0.021-0.129-0.093-0.243-0.199-0.318L48.857,7.95z"/>
	</g>
</g>
<linearGradient id="SVGID_1_" gradientUnits="userSpaceOnUse" x1="58.0674" y1="78.6738" x2="32.1533" y2="33.7894">
	<stop  offset="0.0857" style="stop-color:#5A5A5A;stop-opacity:0"/>
	<stop  offset="1" style="stop-color:#5A5A5A;stop-opacity:0.2"/>
	<a:midPointStop  offset="0.0857" style="stop-color:#5A5A5A;stop-opacity:0"/>
	<a:midPointStop  offset="0.5" style="stop-color:#5A5A5A;stop-opacity:0"/>
	<a:midPointStop  offset="1" style="stop-color:#5A5A5A;stop-opacity:0.2"/>
</linearGradient>
<path fill="url(#SVGID_1_)" d="M53.634,21.803c1.186,2.804,1.843,5.875,1.843,9.099c0,13.153-10.893,23.817-24.327,23.817
	c-7.7,0-14.56-3.506-19.015-8.974c-0.558-0.685-0.193,0.325-0.193,0.325l24.826,44.901L77.45,66.973L53.634,21.803z"/>
<g>
</g>
<g>
</g>
<g>
</g>
<g>
</g>
<g>
</g>
<g>
</g>
</svg>
