<?xml version="1.0" encoding="utf-8"?>
<!-- Generator: Adobe Illustrator 16.0.0, SVG Export Plug-In . SVG Version: 6.00 Build 0)  -->
<!DOCTYPE svg PUBLIC "-//W3C//DTD SVG 1.1//EN" "http://www.w3.org/Graphics/SVG/1.1/DTD/svg11.dtd">
<svg version="1.1" id="Layer_1" xmlns="http://www.w3.org/2000/svg" xmlns:xlink="http://www.w3.org/1999/xlink" x="0px" y="0px"
	 width="104px" height="96.75px" viewBox="0 0 104 96.75" enable-background="new 0 0 104 96.75" xml:space="preserve">
<filter  id="f2" y="0" x="0">
	<feGaussianBlur  in="SourceGraphic" stdDeviation="1"></feGaussianBlur>
</filter>
<filter  id="f1" y="0" x="0">
	<feGaussianBlur  in="SourceGraphic" stdDeviation="0.5"></feGaussianBlur>
</filter>
<g>
	<path fill="#838688" d="M4.276,47.09L3.353,46l1.094-3.852l-0.729-0.86l-2.537,2.148l-0.752-0.888l5.942-5.034l1.769,2.087
		c0.631,0.745,1.008,1.343,1.133,1.793c0.124,0.45-0.051,0.877-0.527,1.28l-1.026,0.868c-0.366,0.311-0.769,0.395-1.208,0.254
		c-0.439-0.142-0.84-0.426-1.202-0.854L4.276,47.09z M7.077,42.562l0.824-0.698c0.446-0.378,0.343-0.951-0.309-1.72l-1.055-1.246
		l-2.234,1.893l0.985,1.163c0.357,0.421,0.672,0.688,0.947,0.802C6.509,42.87,6.79,42.806,7.077,42.562z"/>
	<path fill="#838688" d="M10.523,54.042l-3.601-3.96l5.762-5.239l3.52,3.871l-0.604,0.549l-2.737-3.01l-1.882,1.711l2.47,2.717
		l-0.604,0.549l-2.47-2.717l-2.069,1.881l2.817,3.099L10.523,54.042z"/>
	<path fill="#838688" d="M23.63,56.42l-7.734,3.229l-0.939-0.962l3.457-7.605l0.847,0.867l-3.036,6.456l0.076,0.077l6.525-2.886
		L23.63,56.42z"/>
	<path fill="#838688" d="M24.66,68.212l-3.876-3.69l5.371-5.64l3.789,3.607L29.38,63.08l-2.946-2.805l-1.754,1.842l2.659,2.532
		l-0.562,0.591l-2.659-2.532l-1.928,2.025l3.033,2.888L24.66,68.212z"/>
	<path fill="#838688" d="M32.227,75.021l-1.068-0.948l0.537-3.968l-0.844-0.749l-2.207,2.486l-0.871-0.772l5.169-5.825l2.046,1.816
		c0.73,0.647,1.188,1.186,1.375,1.614c0.187,0.428,0.073,0.875-0.341,1.342l-0.892,1.005c-0.318,0.359-0.706,0.5-1.161,0.422
		c-0.455-0.077-0.892-0.302-1.311-0.674L32.227,75.021z M34.358,70.143l0.717-0.808c0.388-0.438,0.205-0.99-0.549-1.659
		l-1.221-1.083l-1.943,2.189l1.14,1.012c0.413,0.366,0.763,0.587,1.051,0.66C33.84,70.527,34.109,70.424,34.358,70.143z"/>
	<path fill="#838688" d="M41.445,79.006l-0.833,1.009c-0.362,0.438-0.783,0.608-1.264,0.513s-1.098-0.455-1.851-1.076l-2.212-1.825
		l4.957-6.007l2.147,1.772c0.518,0.428,0.88,0.814,1.087,1.161s0.291,0.635,0.253,0.862c-0.038,0.229-0.156,0.463-0.355,0.703
		l-0.665,0.806c-0.204,0.247-0.428,0.378-0.674,0.393c-0.246,0.015-0.53-0.059-0.853-0.221l-0.03,0.037
		c0.275,0.319,0.445,0.647,0.512,0.982C41.732,78.449,41.659,78.746,41.445,79.006z M39.745,79.236l0.749-0.907
		c0.132-0.16,0.206-0.314,0.22-0.464s-0.032-0.301-0.137-0.456c-0.106-0.154-0.209-0.281-0.309-0.379
		c-0.101-0.099-0.25-0.229-0.447-0.393l-1.314-1.084l-1.81,2.193l1.314,1.084c0.451,0.372,0.807,0.588,1.068,0.648
		C39.339,79.539,39.562,79.459,39.745,79.236z M41.893,76.201l0.58-0.704c0.188-0.228,0.238-0.457,0.147-0.688
		c-0.09-0.229-0.33-0.505-0.718-0.826l-1.25-1.031l-1.681,2.036l1.277,1.055c0.383,0.315,0.701,0.482,0.956,0.501
		C41.459,76.562,41.688,76.447,41.893,76.201z"/>
	<path fill="#838688" d="M52.555,91.05l-0.977-0.718l0.686-2.431l-2.688-1.977L47.47,87.31l-0.928-0.683l7.108-4.438l1.083,0.797
		L52.555,91.05z M52.508,87.083l1.021-3.614l-0.087-0.063l-3.147,2.05L52.508,87.083z"/>
</g>
<g transform="translate(1,-1)">
	<g filter="url(#f1)">
		<path opacity="0.3" d="M100.211,89.386c-0.445-0.229-0.965-0.252-1.438-0.067L98.562,89.4l-0.201-0.104
			C61.546,70.326,29.731,42.175,6.357,7.887L6.23,7.701l0.055-0.218c0.126-0.5,0.04-1.004-0.243-1.418
			C5.715,5.584,5.172,5.298,4.59,5.298c-0.353,0-0.695,0.106-0.988,0.306c-0.799,0.545-1.005,1.64-0.459,2.44
			c0.276,0.404,0.7,0.667,1.194,0.74l0.217,0.032l0.123,0.181c23.571,34.585,55.658,62.976,92.791,82.104l0.195,0.101l0.06,0.211
			c0.133,0.481,0.444,0.87,0.879,1.095c0.842,0.434,1.935,0.08,2.365-0.756c0.217-0.417,0.256-0.895,0.112-1.341
			C100.936,89.964,100.627,89.602,100.211,89.386z"/>
	</g>
</g>
<g transform="translate(-1,1)">
	<g filter="url(#f2)">
		<path fill="#FFFFFF" d="M100.211,89.386c-0.445-0.229-0.965-0.252-1.438-0.067L98.562,89.4l-0.201-0.104
			C61.546,70.326,29.731,42.175,6.357,7.887L6.23,7.701l0.055-0.218c0.126-0.5,0.04-1.004-0.243-1.418
			C5.715,5.584,5.172,5.298,4.59,5.298c-0.353,0-0.695,0.106-0.988,0.306c-0.799,0.545-1.005,1.64-0.459,2.44
			c0.276,0.404,0.7,0.667,1.194,0.74l0.217,0.032l0.123,0.181c23.571,34.585,55.658,62.976,92.791,82.104l0.195,0.101l0.06,0.211
			c0.133,0.481,0.444,0.87,0.879,1.095c0.842,0.434,1.935,0.08,2.365-0.756c0.217-0.417,0.256-0.895,0.112-1.341
			C100.936,89.964,100.627,89.602,100.211,89.386z"/>
	</g>
</g>
<path fill="#CACACA" d="M100.211,89.386c-0.445-0.229-0.965-0.252-1.438-0.067L98.562,89.4l-0.201-0.104
	C61.546,70.326,29.731,42.175,6.357,7.887L6.23,7.701l0.055-0.218c0.126-0.5,0.04-1.004-0.243-1.418
	C5.715,5.584,5.172,5.298,4.59,5.298c-0.353,0-0.695,0.106-0.988,0.306c-0.799,0.545-1.005,1.64-0.459,2.44
	c0.276,0.404,0.7,0.667,1.194,0.74l0.217,0.032l0.123,0.181c23.571,34.585,55.658,62.976,92.791,82.104l0.195,0.101l0.06,0.211
	c0.133,0.481,0.444,0.87,0.879,1.095c0.842,0.434,1.935,0.08,2.365-0.756c0.217-0.417,0.256-0.895,0.112-1.341
	C100.936,89.964,100.627,89.602,100.211,89.386z"/>
</svg>
