<svg xmlns="http://www.w3.org/2000/svg" xmlns:xlink="http://www.w3.org/1999/xlink" x="0px" y="0px"
	 width="84px" height="208.167px" viewBox="0 0 84 208.167" enable-background="new 0 0 84 208.167" xml:space="preserve">
<g>
	<g transform="translate(1,-1)">
		<defs>
    			<filter id="f1" x="0" y="0">
        			<feGaussianBlur in="SourceGraphic" stdDeviation="0.5" />
    			</filter>
		</defs>
		<path fill="#709795" filter="url(#f1)" d="M74.155,200.251l-0.151-0.158l0.015-0.22c2.889-43.992-6.008-88.219-25.728-127.898
			C37.047,49.352,22.578,28.673,5.283,10.512l-0.15-0.158l0.014-0.218c0.031-0.495-0.135-0.962-0.47-1.316
			c-0.644-0.681-1.8-0.714-2.482-0.07C1.854,9.072,1.659,9.508,1.646,9.977c-0.013,0.469,0.157,0.915,0.479,1.255
			c0.329,0.349,0.781,0.54,1.273,0.54l0.228-0.01l0.242,0.163C21.005,29.927,35.349,50.431,46.5,72.865
			c19.555,39.346,28.382,83.207,25.526,126.839l-0.015,0.228l-0.182,0.138c-0.407,0.311-0.66,0.775-0.692,1.273
			c-0.062,0.966,0.673,1.804,1.64,1.867l0.113,0.004c0.922,0,1.69-0.722,1.75-1.643C74.672,201.081,74.5,200.612,74.155,200.251z"/>
	</g>
	<g transform="translate(-1,0)">
		<defs>
    			<filter id="f2" x="0" y="0">
        			<feGaussianBlur in="SourceGraphic" stdDeviation="1" />
    			</filter>
		</defs>
		<path fill="white" filter="url(#f2)" d="M74.155,200.251l-0.151-0.158l0.015-0.22c2.889-43.992-6.008-88.219-25.728-127.898
			C37.047,49.352,22.578,28.673,5.283,10.512l-0.15-0.158l0.014-0.218c0.031-0.495-0.135-0.962-0.47-1.316
			c-0.644-0.681-1.8-0.714-2.482-0.07C1.854,9.072,1.659,9.508,1.646,9.977c-0.013,0.469,0.157,0.915,0.479,1.255
			c0.329,0.349,0.781,0.54,1.273,0.54l0.228-0.01l0.242,0.163C21.005,29.927,35.349,50.431,46.5,72.865
			c19.555,39.346,28.382,83.207,25.526,126.839l-0.015,0.228l-0.182,0.138c-0.407,0.311-0.66,0.775-0.692,1.273
			c-0.062,0.966,0.673,1.804,1.64,1.867l0.113,0.004c0.922,0,1.69-0.722,1.75-1.643C74.672,201.081,74.5,200.612,74.155,200.251z"/>
	</g>
	<g>
		<path fill="#5EC7E1" d="M74.155,200.251l-0.151-0.158l0.015-0.22c2.889-43.992-6.008-88.219-25.728-127.898
			C37.047,49.352,22.578,28.673,5.283,10.512l-0.15-0.158l0.014-0.218c0.031-0.495-0.135-0.962-0.47-1.316
			c-0.644-0.681-1.8-0.714-2.482-0.07C1.854,9.072,1.659,9.508,1.646,9.977c-0.013,0.469,0.157,0.915,0.479,1.255
			c0.329,0.349,0.781,0.54,1.273,0.54l0.228-0.01l0.242,0.163C21.005,29.927,35.349,50.431,46.5,72.865
			c19.555,39.346,28.382,83.207,25.526,126.839l-0.015,0.228l-0.182,0.138c-0.407,0.311-0.66,0.775-0.692,1.273
			c-0.062,0.966,0.673,1.804,1.64,1.867l0.113,0.004c0.922,0,1.69-0.722,1.75-1.643C74.672,201.081,74.5,200.612,74.155,200.251z"/>
	</g>
</g>
</svg>
