<?xml version="1.0" encoding="utf-8"?>
<!-- Generator: Adobe Illustrator 16.0.0, SVG Export Plug-In . SVG Version: 6.00 Build 0)  -->
<!DOCTYPE svg PUBLIC "-//W3C//DTD SVG 1.1//EN" "http://www.w3.org/Graphics/SVG/1.1/DTD/svg11.dtd">
<svg version="1.1" id="Layer_1" xmlns="http://www.w3.org/2000/svg" xmlns:xlink="http://www.w3.org/1999/xlink" x="0px" y="0px"
	 width="114.5px" height="100px" viewBox="0 0 114.5 100" enable-background="new 0 0 114.5 100" xml:space="preserve">
<filter  id="f2" y="0" x="0">
	<feGaussianBlur  in="SourceGraphic" stdDeviation="1"></feGaussianBlur>
</filter>
<filter  id="f1" y="0" x="0">
	<feGaussianBlur  in="SourceGraphic" stdDeviation="0.5"></feGaussianBlur>
</filter>
<g>
	<g transform="translate(-1,-1)">
		<g filter="url(#f1)">
			<path opacity="0.3" d="M100.295,3.416c-0.088-0.461-0.348-0.86-0.736-1.125c-0.775-0.53-1.914-0.311-2.438,0.46
				c-0.285,0.416-0.371,0.919-0.244,1.418l0.055,0.219l-0.127,0.187C73.43,38.864,41.615,67.016,4.799,85.984l-0.201,0.104
				l-0.21-0.082c-0.21-0.082-0.429-0.123-0.65-0.123c-0.276,0-0.541,0.062-0.787,0.191c-0.861,0.443-1.2,1.504-0.756,2.365
				c0.303,0.586,0.901,0.951,1.562,0.951l0,0c0.281,0,0.551-0.066,0.802-0.197c0.436-0.225,0.749-0.613,0.88-1.094l0.058-0.211
				l0.195-0.102C42.824,68.662,74.91,40.271,98.482,5.684l0.123-0.181l0.217-0.032c0.494-0.074,0.92-0.336,1.193-0.74
				C100.283,4.345,100.381,3.876,100.295,3.416z"/>
		</g>
	</g>
	<g transform="translate(1,1)">
		<g filter="url(#f2)">
			<path fill="#FFFFFF" d="M100.295,3.416c-0.088-0.461-0.348-0.86-0.736-1.125c-0.775-0.53-1.914-0.311-2.438,0.46
				c-0.285,0.416-0.371,0.919-0.244,1.418l0.055,0.219l-0.127,0.187C73.43,38.864,41.615,67.016,4.799,85.984l-0.201,0.104
				l-0.21-0.082c-0.21-0.082-0.429-0.123-0.65-0.123c-0.276,0-0.541,0.062-0.787,0.191c-0.861,0.443-1.2,1.504-0.756,2.365
				c0.303,0.586,0.901,0.951,1.562,0.951l0,0c0.281,0,0.551-0.066,0.802-0.197c0.436-0.225,0.749-0.613,0.88-1.094l0.058-0.211
				l0.195-0.102C42.824,68.662,74.91,40.271,98.482,5.684l0.123-0.181l0.217-0.032c0.494-0.074,0.92-0.336,1.193-0.74
				C100.283,4.345,100.381,3.876,100.295,3.416z"/>
		</g>
	</g>
	<g>
		<path fill="#CACACA" d="M100.295,3.416c-0.088-0.461-0.348-0.86-0.736-1.125c-0.775-0.53-1.914-0.311-2.438,0.46
			c-0.285,0.416-0.371,0.919-0.244,1.418l0.055,0.219l-0.127,0.187C73.43,38.864,41.615,67.016,4.799,85.984l-0.201,0.104
			l-0.21-0.082c-0.21-0.082-0.429-0.123-0.65-0.123c-0.276,0-0.541,0.062-0.787,0.191c-0.861,0.443-1.2,1.504-0.756,2.365
			c0.303,0.586,0.901,0.951,1.562,0.951l0,0c0.281,0,0.551-0.066,0.802-0.197c0.436-0.225,0.749-0.613,0.88-1.094l0.058-0.211
			l0.195-0.102C42.824,68.662,74.91,40.271,98.482,5.684l0.123-0.181l0.217-0.032c0.494-0.074,0.92-0.336,1.193-0.74
			C100.283,4.345,100.381,3.876,100.295,3.416z"/>
	</g>
</g>
<g>
	<path fill="#838688" d="M50.918,88.795l-1.178,0.809l-3.721-1.479l-0.93,0.638l1.88,2.741l-0.96,0.658l-4.405-6.422l2.256-1.548
		c0.805-0.552,1.438-0.867,1.898-0.945c0.46-0.078,0.867,0.14,1.22,0.654l0.761,1.108c0.271,0.396,0.314,0.806,0.129,1.229
		c-0.185,0.423-0.509,0.792-0.97,1.109L50.918,88.795z M46.697,85.55l-0.61-0.891c-0.33-0.481-0.911-0.438-1.742,0.133l-1.346,0.923
		l1.656,2.415l1.257-0.862c0.455-0.312,0.753-0.6,0.894-0.861C46.946,86.146,46.91,85.859,46.697,85.55z"/>
	<path fill="#838688" d="M58.494,83.265l-4.304,3.182l-4.63-6.262l4.207-3.11l0.484,0.656l-3.271,2.418l1.513,2.046l2.952-2.184
		l0.485,0.656l-2.953,2.184l1.663,2.248l3.367-2.49L58.494,83.265z"/>
	<path fill="#838688" d="M62.168,70.476l2.432,8.021l-1.051,0.838l-7.218-4.207l0.947-0.755l6.117,3.672l0.085-0.067l-2.213-6.783
		L62.168,70.476z"/>
	<path fill="#838688" d="M74.017,70.628l-4.062,3.484l-5.07-5.911l3.972-3.406l0.531,0.619l-3.088,2.648l1.656,1.931l2.787-2.391
		l0.531,0.62l-2.787,2.391l1.82,2.122l3.179-2.727L74.017,70.628z"/>
	<path fill="#838688" d="M81.547,63.789l-1.051,0.968l-3.894-0.934l-0.829,0.764l2.251,2.445l-0.856,0.789l-5.275-5.729l2.013-1.854
		c0.719-0.661,1.3-1.062,1.744-1.206c0.445-0.143,0.879,0.016,1.301,0.475l0.911,0.988c0.325,0.354,0.426,0.752,0.303,1.197
		s-0.391,0.857-0.803,1.236L81.547,63.789z M76.907,61.178l-0.731-0.795c-0.396-0.429-0.964-0.303-1.706,0.38l-1.2,1.105
		l1.983,2.154l1.121-1.032c0.406-0.374,0.66-0.7,0.762-0.979C77.238,61.732,77.162,61.454,76.907,61.178z"/>
	<path fill="#838688" d="M86.426,55.032l0.92,0.93c0.399,0.403,0.527,0.84,0.383,1.309c-0.144,0.469-0.562,1.047-1.257,1.732
		l-2.038,2.018l-5.478-5.536l1.979-1.958c0.478-0.473,0.899-0.794,1.266-0.965c0.365-0.171,0.66-0.226,0.883-0.165
		c0.224,0.061,0.445,0.202,0.664,0.424l0.734,0.742c0.226,0.228,0.333,0.464,0.323,0.71s-0.112,0.521-0.306,0.825l0.033,0.034
		c0.347-0.241,0.689-0.378,1.029-0.41S86.189,54.793,86.426,55.032z M83.68,54.305l-0.642-0.648
		c-0.208-0.21-0.431-0.282-0.669-0.216c-0.237,0.066-0.536,0.277-0.895,0.632l-1.151,1.14l1.857,1.876l1.177-1.164
		c0.353-0.349,0.551-0.649,0.595-0.9C83.996,54.771,83.905,54.532,83.68,54.305z M86.484,56.746l-0.827-0.836
		c-0.146-0.147-0.293-0.236-0.44-0.266c-0.146-0.028-0.302,0.002-0.467,0.091c-0.164,0.09-0.301,0.18-0.409,0.27
		c-0.107,0.09-0.253,0.226-0.435,0.405l-1.211,1.198l2,2.021l1.211-1.198c0.415-0.41,0.666-0.743,0.752-0.997
		C86.745,57.181,86.687,56.951,86.484,56.746z"/>
	<path fill="#838688" d="M96.748,44.005l0.97,0.877c0.421,0.382,0.573,0.811,0.455,1.286s-0.505,1.076-1.159,1.799l-1.925,2.127
		l-5.774-5.227l1.868-2.064c0.451-0.498,0.854-0.842,1.211-1.032c0.355-0.19,0.646-0.262,0.873-0.214
		c0.226,0.049,0.454,0.177,0.686,0.387l0.774,0.7c0.237,0.215,0.357,0.445,0.361,0.691s-0.083,0.527-0.26,0.842l0.035,0.032
		c0.333-0.261,0.668-0.416,1.005-0.467C96.206,43.691,96.499,43.779,96.748,44.005z M93.967,43.429l-0.676-0.611
		c-0.22-0.199-0.446-0.259-0.681-0.179c-0.233,0.079-0.52,0.306-0.858,0.68l-1.087,1.201l1.957,1.771l1.111-1.228
		c0.333-0.368,0.515-0.678,0.545-0.932C94.308,43.878,94.204,43.644,93.967,43.429z M96.901,45.713l-0.872-0.789
		c-0.154-0.14-0.306-0.22-0.454-0.241c-0.148-0.021-0.302,0.019-0.461,0.117s-0.291,0.195-0.394,0.291s-0.24,0.238-0.412,0.429
		l-1.144,1.263l2.108,1.909l1.144-1.264c0.392-0.433,0.624-0.778,0.696-1.037S97.114,45.906,96.901,45.713z"/>
</g>
</svg>
