<svg xmlns="http://www.w3.org/2000/svg" xmlns:xlink="http://www.w3.org/1999/xlink" x="0px" y="0px"
	 width="100px" height="89px" viewBox="8.625 4.75 100 89" enable-background="new 8.625 4.75 100 89" xml:space="preserve">
<g transform="translate(-1,-1)">
	<defs>
    		<filter id="f1" x="0" y="0">
        		<feGaussianBlur in="SourceGraphic" stdDeviation="0.5" />
    		</filter>
	</defs>
	<path fill="#709795" filter="url(#f1)" d="M107.859,6.922c-0.087-0.461-0.348-0.86-0.735-1.125c-0.776-0.53-1.915-0.311-2.439,0.46
			c-0.285,0.416-0.371,0.919-0.244,1.418l0.056,0.219l-0.127,0.187C80.995,42.37,49.18,70.521,12.364,89.49l-0.201,0.104
			l-0.21-0.082c-0.21-0.082-0.429-0.124-0.65-0.124c-0.276,0-0.541,0.064-0.787,0.192c-0.861,0.444-1.2,1.505-0.756,2.365
			c0.303,0.587,0.901,0.951,1.562,0.951c0,0,0,0,0,0c0.281,0,0.551-0.066,0.802-0.196c0.436-0.225,0.749-0.613,0.88-1.094
			l0.058-0.211l0.195-0.101c37.132-19.126,69.218-47.517,92.79-82.104l0.123-0.181l0.217-0.032c0.494-0.074,0.919-0.336,1.194-0.74
			C107.848,7.851,107.946,7.383,107.859,6.922z"/>
</g>
<g transform="translate(0,1)">
	<defs>
    		<filter id="f2" x="0" y="0">
        		<feGaussianBlur in="SourceGraphic" stdDeviation="1" />
    		</filter>
	</defs>
	<path fill="white" filter="url(#f2)" d="M107.859,6.922c-0.087-0.461-0.348-0.86-0.735-1.125c-0.776-0.53-1.915-0.311-2.439,0.46
			c-0.285,0.416-0.371,0.919-0.244,1.418l0.056,0.219l-0.127,0.187C80.995,42.37,49.18,70.521,12.364,89.49l-0.201,0.104
			l-0.21-0.082c-0.21-0.082-0.429-0.124-0.65-0.124c-0.276,0-0.541,0.064-0.787,0.192c-0.861,0.444-1.2,1.505-0.756,2.365
			c0.303,0.587,0.901,0.951,1.562,0.951c0,0,0,0,0,0c0.281,0,0.551-0.066,0.802-0.196c0.436-0.225,0.749-0.613,0.88-1.094
			l0.058-0.211l0.195-0.101c37.132-19.126,69.218-47.517,92.79-82.104l0.123-0.181l0.217-0.032c0.494-0.074,0.919-0.336,1.194-0.74
			C107.848,7.851,107.946,7.383,107.859,6.922z"/>
</g>
<g>
	<g>
		<path fill="#5EC7E1" d="M107.859,6.922c-0.087-0.461-0.348-0.86-0.735-1.125c-0.776-0.53-1.915-0.311-2.439,0.46
			c-0.285,0.416-0.371,0.919-0.244,1.418l0.056,0.219l-0.127,0.187C80.995,42.37,49.18,70.521,12.364,89.49l-0.201,0.104
			l-0.21-0.082c-0.21-0.082-0.429-0.124-0.65-0.124c-0.276,0-0.541,0.064-0.787,0.192c-0.861,0.444-1.2,1.505-0.756,2.365
			c0.303,0.587,0.901,0.951,1.562,0.951c0,0,0,0,0,0c0.281,0,0.551-0.066,0.802-0.196c0.436-0.225,0.749-0.613,0.88-1.094
			l0.058-0.211l0.195-0.101c37.132-19.126,69.218-47.517,92.79-82.104l0.123-0.181l0.217-0.032c0.494-0.074,0.919-0.336,1.194-0.74
			C107.848,7.851,107.946,7.383,107.859,6.922z"/>
	</g>
</g>
</svg>
