<?xml version="1.0" encoding="utf-8"?>
<!-- Generator: Adobe Illustrator 16.0.0, SVG Export Plug-In . SVG Version: 6.00 Build 0)  -->
<!DOCTYPE svg PUBLIC "-//W3C//DTD SVG 1.1//EN" "http://www.w3.org/Graphics/SVG/1.1/DTD/svg11.dtd">
<svg version="1.1" id="Layer_1" xmlns="http://www.w3.org/2000/svg" xmlns:xlink="http://www.w3.org/1999/xlink" x="0px" y="0px"
	 width="22.856px" height="27.181px" viewBox="0 0 22.856 27.181" enable-background="new 0 0 22.856 27.181" xml:space="preserve">
<path fill="#4AB873" d="M7.995,2c2.375,0,4.626,1.421,5.57,3.761c1.241,3.071-0.243,6.565-3.314,7.804
	C9.516,13.859,8.757,14,8.011,14c-2.375,0-4.625-1.42-5.569-3.758C1.201,7.17,2.685,3.675,5.756,2.437C6.49,2.14,7.249,2,7.995,2
	 M7.995,0C6.97,0,5.965,0.196,5.009,0.581C3.027,1.38,1.476,2.903,0.641,4.87c-0.834,1.966-0.854,4.14-0.053,6.12
	C1.817,14.033,4.731,16,8.011,16c1.025,0,2.03-0.195,2.987-0.582c1.98-0.797,3.531-2.318,4.366-4.285
	c0.836-1.965,0.855-4.141,0.055-6.122C14.19,1.968,11.276,0,7.995,0L7.995,0z"/>
<linearGradient id="SVGID_1_" gradientUnits="userSpaceOnUse" x1="3.0508" y1="3.0498" x2="12.9551" y2="12.9541">
	<stop  offset="0" style="stop-color:#D6D5DE"/>
	<stop  offset="0.7108" style="stop-color:#FFFFFF"/>
</linearGradient>
<path fill="url(#SVGID_1_)" d="M13.803,11.922c0.013-0.019,0.023-0.039,0.035-0.058c0.11-0.167,0.216-0.337,0.312-0.514
	c0.215-0.397,0.393-0.814,0.528-1.246c0.056-0.177,0.101-0.356,0.142-0.536c0.009-0.037,0.021-0.073,0.029-0.111
	c0.047-0.217,0.082-0.436,0.107-0.655c0-0.002,0-0.005,0.001-0.008c0.052-0.45,0.059-0.904,0.021-1.356
	c-0.001-0.002,0-0.003-0.001-0.005c-0.018-0.218-0.047-0.435-0.086-0.651c-0.002-0.012-0.003-0.024-0.006-0.037
	c-0.04-0.219-0.092-0.437-0.154-0.652c-0.002-0.01-0.004-0.021-0.007-0.03c-0.066-0.228-0.144-0.453-0.233-0.676
	c-0.137-0.34-0.299-0.662-0.48-0.969c-0.019-0.03-0.042-0.057-0.061-0.086c-0.168-0.273-0.35-0.537-0.551-0.781
	c-0.001-0.002-0.003-0.004-0.005-0.006c-1.092-1.328-2.64-2.213-4.368-2.467C8.687,1.026,8.341,0.999,7.993,0.999
	c-0.221,0-0.443,0.012-0.665,0.033C7.298,1.034,7.27,1.042,7.24,1.044C7.05,1.065,6.861,1.091,6.671,1.127
	C6.604,1.14,6.539,1.161,6.473,1.175C6.321,1.21,6.169,1.242,6.019,1.286C5.995,1.294,5.972,1.304,5.948,1.312
	C5.758,1.37,5.569,1.433,5.382,1.509C5.275,1.552,5.176,1.604,5.073,1.651c-0.11,0.051-0.222,0.097-0.328,0.152
	C4.66,1.849,4.581,1.899,4.499,1.947C4.378,2.017,4.256,2.084,4.14,2.16C4.079,2.2,4.023,2.246,3.964,2.288
	C3.834,2.38,3.703,2.471,3.58,2.571C3.538,2.604,3.501,2.643,3.46,2.677C3.327,2.792,3.194,2.907,3.069,3.03
	C3.038,3.062,3.01,3.096,2.98,3.127C2.853,3.259,2.728,3.392,2.611,3.532C2.577,3.574,2.547,3.619,2.514,3.661
	C2.409,3.795,2.304,3.929,2.208,4.07c-0.062,0.093-0.116,0.19-0.174,0.286C1.976,4.452,1.913,4.545,1.859,4.644
	C1.641,5.044,1.462,5.466,1.326,5.9C1.284,6.033,1.253,6.169,1.219,6.304C1.199,6.386,1.173,6.466,1.156,6.548
	C1.114,6.741,1.085,6.937,1.06,7.132C1.057,7.158,1.051,7.184,1.048,7.21C1.023,7.424,1.011,7.639,1.006,7.854
	c0,0.011-0.002,0.021-0.002,0.031C1.001,8.102,1.009,8.317,1.026,8.534c0.001,0.012,0,0.023,0.001,0.035
	c0.019,0.22,0.048,0.438,0.087,0.657c0.002,0.01,0.002,0.019,0.004,0.028c0.085,0.461,0.216,0.917,0.396,1.362
	c0.945,2.339,3.028,3.948,5.467,4.306c0.267,0.04,0.54,0.052,0.812,0.061C7.867,14.986,7.938,15,8.012,15h0h0
	c0.219,0,0.439-0.011,0.659-0.031c0.156-0.016,0.309-0.042,0.463-0.067c0.064-0.01,0.128-0.015,0.191-0.027
	c0.441-0.085,0.875-0.212,1.297-0.382c0.445-0.18,0.863-0.401,1.254-0.66c0.006-0.004,0.012-0.008,0.017-0.012
	C12.65,13.318,13.296,12.676,13.803,11.922z"/>
<path fill-rule="evenodd" clip-rule="evenodd" fill="#4AB873" d="M11.003,8.002c0,1.656-1.344,2.998-3,2.998
	c-1.658,0-3.001-1.342-3-3c0-1.656,1.343-2.999,3-2.999C9.661,5.001,11.004,6.346,11.003,8.002z"/>
</svg>
