<?xml version="1.0" encoding="utf-8"?>
<!-- Generator: Adobe Illustrator 16.0.0, SVG Export Plug-In . SVG Version: 6.00 Build 0)  -->
<!DOCTYPE svg PUBLIC "-//W3C//DTD SVG 1.1//EN" "http://www.w3.org/Graphics/SVG/1.1/DTD/svg11.dtd">
<svg version="1.1" id="Layer_1" xmlns="http://www.w3.org/2000/svg" xmlns:xlink="http://www.w3.org/1999/xlink" x="0px" y="0px"
	 width="22.855px" height="27.182px" viewBox="0 0 22.855 27.182" enable-background="new 0 0 22.855 27.182" xml:space="preserve">
<linearGradient id="SVGID_1_" gradientUnits="userSpaceOnUse" x1="8.0339" y1="-19.9636" x2="-1.2649" y2="-3.8576" gradientTransform="matrix(1 0 0 -1 8.5 3.1812)">
	<stop  offset="0.0857" style="stop-color:#595959;stop-opacity:0"/>
	<stop  offset="1" style="stop-color:#595959;stop-opacity:0.2"/>
</linearGradient>
<path fill="url(#SVGID_1_)" d="M0.545,10.901L9.546,27.18l13.311-7.853l-8.331-15.8L0.545,10.901z"/>
<path fill="#CCCCCC" d="M7.994,2c2.375,0,4.626,1.42,5.569,3.76c1.241,3.072-0.243,6.566-3.313,7.805
	C9.516,13.859,8.757,14,8.011,14c-2.375,0-4.625-1.42-5.569-3.758C1.2,7.17,2.684,3.675,5.756,2.436C6.49,2.14,7.249,2,7.994,2
	 M7.995,0C6.97,0,5.965,0.196,5.008,0.581C3.026,1.38,1.475,2.903,0.64,4.87c-0.834,1.966-0.854,4.14-0.053,6.121
	C1.816,14.033,4.73,16,8.011,16c1.025,0,2.03-0.194,2.987-0.582c1.979-0.797,3.53-2.317,4.367-4.285
	C16.2,9.168,16.22,6.992,15.419,5.01C14.19,1.967,11.276,0,7.995,0L7.995,0z"/>
<path fill="#F2F3F2" d="M13.816,11.902c0.119-0.178,0.231-0.361,0.334-0.552c0.216-0.397,0.394-0.814,0.529-1.245
	c0.065-0.206,0.118-0.414,0.164-0.624c0.002-0.007,0.005-0.014,0.006-0.021c0.291-1.354,0.174-2.763-0.356-4.076
	c-0.137-0.339-0.3-0.663-0.482-0.97c-0.005-0.009-0.012-0.016-0.017-0.025C12.914,2.594,11.1,1.381,9.025,1.077
	c-0.231-0.035-0.466-0.041-0.7-0.053C8.214,1.019,8.107,1,7.995,1c0,0-0.001,0-0.001,0c0,0-0.001,0-0.001,0
	C7.775,1,7.555,1.01,7.335,1.031C7.159,1.048,6.987,1.076,6.814,1.106C6.769,1.114,6.724,1.117,6.68,1.125
	c-0.207,0.04-0.411,0.091-0.614,0.149C6.053,1.278,6.04,1.28,6.028,1.284C5.81,1.348,5.595,1.423,5.382,1.509
	C5.16,1.598,4.946,1.698,4.737,1.807C4.707,1.823,4.679,1.842,4.65,1.858C4.472,1.954,4.298,2.055,4.131,2.165
	c-0.019,0.013-0.036,0.027-0.055,0.04c-0.173,0.117-0.343,0.24-0.504,0.372C3.563,2.584,3.555,2.592,3.547,2.599
	C3.379,2.738,3.217,2.883,3.062,3.036C3.059,3.039,3.057,3.042,3.054,3.045C2.897,3.202,2.747,3.366,2.606,3.538
	C2.598,3.547,2.592,3.556,2.585,3.566C2.451,3.73,2.323,3.898,2.205,4.074C2.168,4.129,2.138,4.186,2.103,4.241
	c-0.084,0.133-0.17,0.266-0.246,0.406c-0.217,0.399-0.396,0.82-0.532,1.254C1.291,6.008,1.268,6.117,1.24,6.225
	C1.211,6.334,1.177,6.441,1.155,6.552C1.118,6.72,1.094,6.89,1.072,7.06C1.064,7.112,1.053,7.162,1.047,7.214
	c-0.022,0.195-0.033,0.39-0.038,0.585c-0.001,0.03-0.005,0.06-0.005,0.089C1.001,8.097,1.009,8.305,1.025,8.513
	c0.001,0.019,0.001,0.038,0.002,0.057c0.018,0.219,0.048,0.436,0.087,0.653c0.002,0.011,0.002,0.021,0.004,0.032
	c0.085,0.461,0.216,0.917,0.396,1.362c0.945,2.338,3.028,3.948,5.467,4.306c0.265,0.04,0.534,0.051,0.803,0.061
	C7.86,14.985,7.934,15,8.011,15h0c0,0,0,0,0,0c0.219,0,0.439-0.011,0.659-0.031c0.177-0.018,0.353-0.046,0.528-0.076
	c0.042-0.007,0.084-0.01,0.126-0.019c0.442-0.085,0.876-0.212,1.299-0.382c1.312-0.53,2.408-1.422,3.18-2.571
	C13.808,11.914,13.812,11.908,13.816,11.902z"/>
<path fill="#838383" d="M11.003,8.002c0,1.656-1.344,2.998-3,2.998c-1.658,0-3.001-1.342-3-3c0-1.656,1.343-3,3-3
	S11.004,6.346,11.003,8.002z"/>
</svg>
