<?xml version="1.0" encoding="utf-8"?>
<!-- Generator: Adobe Illustrator 16.0.0, SVG Export Plug-In . SVG Version: 6.00 Build 0)  -->
<!DOCTYPE svg PUBLIC "-//W3C//DTD SVG 1.1//EN" "http://www.w3.org/Graphics/SVG/1.1/DTD/svg11.dtd">
<svg version="1.1" id="Layer_1" xmlns="http://www.w3.org/2000/svg" xmlns:xlink="http://www.w3.org/1999/xlink" x="0px" y="0px"
	 width="20px" height="20px" viewBox="0 0 20 20" enable-background="new 0 0 20 20" xml:space="preserve">
<g>
	<path fill="#E9E9E2" d="M19.267,6.264C17.731,2.46,14.09,0,9.99,0C8.709,0,7.453,0.246,6.258,0.727
		C3.782,1.725,1.843,3.629,0.8,6.088c-1.042,2.457-1.066,5.175-0.066,7.649C2.27,17.542,5.911,20,10.01,20
		c1.282,0,2.538-0.244,3.733-0.728c2.474-0.996,4.413-2.898,5.455-5.356C20.244,11.46,20.267,8.74,19.267,6.264z"/>
	<linearGradient id="SVGID_1_" gradientUnits="userSpaceOnUse" x1="2.3364" y1="3.5698" x2="17.6648" y2="16.4319">
		<stop  offset="0" style="stop-color:#FFFFFF"/>
		<stop  offset="1" style="stop-color:#A8A6A6"/>
	</linearGradient>
	<path fill="url(#SVGID_1_)" d="M9.99,1c3.689,0,6.966,2.213,8.35,5.638c0.901,2.231,0.879,4.677-0.062,6.888
		c-0.938,2.211-2.681,3.923-4.91,4.82C12.294,18.779,11.164,19,10.01,19c-3.689,0-6.966-2.213-8.349-5.638
		c-0.9-2.227-0.879-4.672,0.06-6.884C2.66,4.266,4.404,2.552,6.631,1.654C7.711,1.22,8.841,1,9.99,1 M9.99,0
		C8.709,0,7.453,0.246,6.258,0.727C3.782,1.725,1.843,3.629,0.8,6.088c-1.042,2.457-1.066,5.175-0.066,7.649
		C2.27,17.542,5.911,20,10.01,20c1.282,0,2.538-0.244,3.733-0.728c2.474-0.996,4.413-2.898,5.455-5.356
		c1.045-2.456,1.069-5.176,0.069-7.652C17.731,2.46,14.09,0,9.99,0L9.99,0z"/>
</g>
<path fill-rule="evenodd" clip-rule="evenodd" fill="#4AB873" d="M13.749,10.003c0,2.07-1.68,3.747-3.748,3.747
	c-2.072,0-3.75-1.677-3.75-3.75c0-2.07,1.68-3.749,3.75-3.749S13.75,7.933,13.749,10.003z"/>
</svg>
