<?xml version="1.0" standalone="no"?>
<!DOCTYPE svg PUBLIC "-//W3C//DTD SVG 20010904//EN"
 "http://www.w3.org/TR/2001/REC-SVG-20010904/DTD/svg10.dtd">
<svg version="1.0" xmlns="http://www.w3.org/2000/svg"
 width="160.000000pt" height="160.000000pt" viewBox="0 0 160.000000 160.000000"
 preserveAspectRatio="xMidYMid meet">
<metadata>
Created by potrace 1.11, written by Peter Selinger 2001-2013
</metadata>
<g transform="translate(0.000000,160.000000) scale(0.100000,-0.100000)"
fill="#000000" stroke="none">
<path d="M449 1388 c0 -7 -1 -65 -1 -128 l-1 -115 179 -5 c178 -5 180 -5 246
-38 215 -106 260 -385 88 -546 -89 -84 -141 -98 -352 -98 l-158 0 -1 -24 c0
-13 -1 -60 -1 -104 0 -44 1 -91 1 -105 l1 -25 178 0 c126 0 195 4 237 15 270
69 455 299 459 570 2 145 -22 232 -93 341 -79 122 -240 235 -375 262 -78 16
-406 16 -407 0z"/>
</g>
</svg>
