<?xml version="1.0" encoding="utf-8"?>
<!-- Generator: Adobe Illustrator 16.0.0, SVG Export Plug-In . SVG Version: 6.00 Build 0)  -->
<!DOCTYPE svg PUBLIC "-//W3C//DTD SVG 1.1//EN" "http://www.w3.org/Graphics/SVG/1.1/DTD/svg11.dtd">
<svg version="1.1" id="Layer_1" xmlns="http://www.w3.org/2000/svg" xmlns:xlink="http://www.w3.org/1999/xlink" x="0px" y="0px"
	 width="150px" height="150px" viewBox="0 0 150 150" enable-background="new 0 0 150 150" xml:space="preserve">
<g>
	<g>
		<path fill="#FFFFFF" d="M36.745,103.188c-0.075-0.075-0.165-0.112-0.269-0.112c-0.104,0-0.194,0.037-0.268,0.112
			c-0.075,0.074-0.112,0.163-0.112,0.269v4.555c0,0.735,0.259,1.359,0.778,1.88c0.52,0.52,1.146,0.778,1.88,0.778
			c0.733,0,1.359-0.259,1.878-0.778c0.52-0.521,0.779-1.145,0.779-1.88v-4.555c0-0.105-0.037-0.194-0.112-0.269
			c-0.074-0.075-0.163-0.112-0.268-0.112s-0.194,0.037-0.269,0.112c-0.074,0.074-0.11,0.163-0.11,0.269v4.555
			c0,0.526-0.186,0.973-0.555,1.345c-0.371,0.368-0.818,0.555-1.343,0.555c-0.526,0-0.973-0.187-1.344-0.555
			c-0.369-0.371-0.554-0.818-0.554-1.345v-4.555C36.856,103.352,36.819,103.263,36.745,103.188z M26.628,63.435H21.5v3.986h5.128
			c4.762,0,8.636,3.875,8.636,8.636c0,4.763-3.875,8.637-8.636,8.637H21.5v3.985h5.128c6.96,0,12.623-5.663,12.623-12.622
			C39.251,69.098,33.589,63.435,26.628,63.435z M41.088,112.803c-0.105,0-0.194,0.037-0.269,0.112
			c-0.074,0.074-0.11,0.163-0.11,0.269v4.557c0,0.525-0.186,0.972-0.555,1.343c-0.371,0.369-0.818,0.556-1.343,0.556
			c-0.526,0-0.973-0.187-1.343-0.556c-0.37-0.369-0.554-0.817-0.554-1.343v-4.557c0-0.105-0.037-0.194-0.112-0.269
			c-0.074-0.075-0.165-0.112-0.268-0.112c-0.104,0-0.194,0.037-0.269,0.112c-0.074,0.074-0.111,0.163-0.111,0.269v4.557
			c0,0.734,0.259,1.358,0.778,1.878c0.52,0.519,1.146,0.778,1.88,0.778c0.734,0,1.36-0.26,1.879-0.778
			c0.52-0.52,0.779-1.144,0.779-1.878v-4.557c0-0.105-0.037-0.194-0.111-0.269C41.284,112.84,41.192,112.803,41.088,112.803z
			 M31.304,112.803c-1.047,0-1.941,0.371-2.684,1.114c-0.743,0.743-1.113,1.636-1.113,2.685c0,1.048,0.371,1.941,1.113,2.684
			c0.741,0.742,1.635,1.112,2.684,1.112c1.048,0,1.941-0.37,2.684-1.112c0.741-0.742,1.112-1.636,1.112-2.684
			c0-1.049-0.371-1.941-1.112-2.685C33.247,113.174,32.351,112.803,31.304,112.803z M33.451,118.748
			c-0.592,0.593-1.309,0.891-2.147,0.891s-1.553-0.298-2.147-0.891c-0.592-0.593-0.889-1.309-0.889-2.146
			c0-0.839,0.296-1.555,0.889-2.147c0.594-0.593,1.309-0.891,2.147-0.891s1.555,0.298,2.147,0.891
			c0.594,0.593,0.891,1.309,0.891,2.147C34.342,117.439,34.045,118.154,33.451,118.748z M25.399,94.108
			c0.715,0,1.339,0.216,1.875,0.646c0.076,0.075,0.166,0.112,0.271,0.112c0.104,0,0.194-0.035,0.269-0.111
			c0.074-0.074,0.111-0.163,0.111-0.267c0-0.105-0.036-0.194-0.11-0.271c-0.706-0.579-1.511-0.868-2.416-0.868
			c-1.047,0-1.941,0.372-2.684,1.114c-0.743,0.743-1.113,1.636-1.113,2.685c0,1.048,0.37,1.941,1.113,2.684
			c0.741,0.742,1.635,1.112,2.684,1.112c0.886,0,1.682-0.281,2.388-0.844c0.073-0.073,0.109-0.161,0.109-0.267
			c0-0.104-0.037-0.193-0.112-0.267c-0.074-0.075-0.163-0.111-0.268-0.111c-0.083,0-0.156,0.022-0.22,0.065
			c-0.541,0.442-1.173,0.664-1.898,0.664c-0.838,0-1.553-0.297-2.147-0.89c-0.592-0.593-0.889-1.309-0.889-2.147
			c0-0.838,0.296-1.554,0.889-2.146C23.846,94.405,24.562,94.108,25.399,94.108z M34.057,95.628c0-0.631-0.222-1.167-0.667-1.611
			c-0.445-0.446-0.982-0.667-1.612-0.667H29.88c-0.105,0-0.194,0.037-0.269,0.111S29.5,93.624,29.5,93.729v6.834
			c0,0.104,0.037,0.194,0.111,0.269s0.164,0.112,0.269,0.112s0.194-0.038,0.268-0.112c0.075-0.074,0.112-0.164,0.112-0.269v-2.657
			h1.519c0.057,0,0.112-0.002,0.166-0.004l1.779,2.848c0.085,0.129,0.197,0.194,0.332,0.194c0.104,0,0.194-0.038,0.269-0.112
			s0.112-0.164,0.112-0.269c0-0.08-0.021-0.147-0.061-0.208l-1.652-2.647c0.24-0.107,0.463-0.265,0.668-0.47
			C33.835,96.793,34.057,96.258,34.057,95.628z M32.854,96.702c-0.296,0.297-0.654,0.444-1.075,0.444H30.26v-3.038h1.519
			c0.421,0,0.779,0.148,1.075,0.444c0.296,0.297,0.443,0.654,0.443,1.076C33.297,96.049,33.149,96.406,32.854,96.702z
			 M23.781,115.845c-0.31-0.024-0.567-0.156-0.772-0.398c-0.204-0.241-0.293-0.517-0.269-0.831c0.025-0.31,0.158-0.566,0.399-0.771
			c0.24-0.203,0.518-0.294,0.83-0.269c0.31,0.027,0.569,0.158,0.775,0.399c0.06,0.079,0.118,0.156,0.175,0.233
			c0.057,0.076,0.146,0.113,0.266,0.113c0.105,0,0.194-0.036,0.268-0.112c0.075-0.074,0.112-0.163,0.112-0.267
			c0-0.077-0.019-0.144-0.057-0.204c-0.055-0.089-0.116-0.173-0.185-0.255c-0.412-0.453-0.892-0.68-1.443-0.68
			c-0.465,0-0.875,0.153-1.234,0.461c-0.399,0.339-0.619,0.769-0.665,1.292c-0.041,0.524,0.108,0.985,0.447,1.385
			s0.77,0.622,1.292,0.665c0.42,0.034,0.767,0.21,1.036,0.527c0.271,0.319,0.388,0.688,0.354,1.109
			c-0.035,0.416-0.212,0.762-0.532,1.031c-0.32,0.27-0.688,0.391-1.107,0.358c-0.419-0.034-0.765-0.212-1.033-0.535
			c-0.051-0.055-0.096-0.11-0.133-0.171c-0.08-0.117-0.188-0.176-0.323-0.176c-0.104,0-0.193,0.037-0.268,0.111
			c-0.074,0.074-0.111,0.163-0.111,0.268c0,0.084,0.025,0.162,0.075,0.229c0.055,0.082,0.114,0.159,0.181,0.232
			c0.49,0.537,1.076,0.806,1.756,0.806c0.543,0,1.029-0.181,1.456-0.545c0.479-0.406,0.743-0.921,0.793-1.547
			c0.006-0.073,0.009-0.146,0.009-0.218c0-0.539-0.18-1.02-0.537-1.443C24.929,116.164,24.411,115.899,23.781,115.845z
			 M27.196,103.188c-0.074-0.075-0.163-0.112-0.269-0.112c-0.13,0-0.232,0.052-0.308,0.157l-1.969,2.952l-1.97-2.952
			c-0.076-0.105-0.179-0.157-0.308-0.157c-0.104,0-0.194,0.037-0.268,0.112c-0.074,0.074-0.111,0.163-0.111,0.269
			c0,0.079,0.021,0.148,0.061,0.212l2.216,3.317v3.302c0,0.104,0.037,0.193,0.112,0.269c0.074,0.074,0.165,0.111,0.269,0.111
			c0.104,0,0.193-0.037,0.268-0.111c0.074-0.075,0.111-0.164,0.111-0.269v-3.302l2.217-3.317c0.041-0.063,0.061-0.135,0.061-0.212
			C27.306,103.352,27.271,103.263,27.196,103.188z M31.056,110.67c1.047,0,1.941-0.371,2.684-1.113
			c0.742-0.742,1.112-1.637,1.112-2.685s-0.371-1.941-1.112-2.685c-0.742-0.742-1.637-1.112-2.684-1.112
			c-1.047,0-1.941,0.37-2.684,1.112c-0.743,0.743-1.113,1.637-1.113,2.685s0.371,1.942,1.113,2.685
			C29.114,110.298,30.008,110.67,31.056,110.67z M28.909,104.725c0.594-0.592,1.309-0.89,2.147-0.89s1.554,0.298,2.147,0.89
			c0.594,0.593,0.89,1.309,0.89,2.147s-0.296,1.555-0.89,2.147c-0.593,0.592-1.309,0.89-2.147,0.89s-1.553-0.298-2.147-0.89
			c-0.593-0.593-0.889-1.309-0.889-2.147S28.316,105.317,28.909,104.725z M48.796,112.803c-0.104,0-0.194,0.037-0.269,0.112
			c-0.074,0.074-0.111,0.163-0.111,0.269v5.728l-4.641-5.97c-0.083-0.092-0.181-0.139-0.295-0.139c-0.105,0-0.194,0.037-0.269,0.112
			c-0.074,0.074-0.111,0.163-0.111,0.269v6.833c0,0.105,0.037,0.194,0.111,0.269c0.075,0.074,0.164,0.111,0.269,0.111
			s0.194-0.037,0.268-0.111c0.075-0.074,0.112-0.163,0.112-0.269v-5.724l4.65,5.98c0.08,0.082,0.174,0.123,0.285,0.123
			c0.104,0,0.194-0.037,0.269-0.111c0.074-0.074,0.111-0.163,0.111-0.269v-6.833c0-0.105-0.037-0.194-0.111-0.269
			C48.99,112.84,48.899,112.803,48.796,112.803z M108.584,72.181c0-4.822-3.922-8.746-8.744-8.746h-7.767v3.986h7.768
			c2.627,0,4.76,2.134,4.76,4.759c0,2.624-2.133,4.758-4.76,4.758h-3.766v-0.001H92.09v11.722h3.985v-7.733l6.088,7.638h5.521
			l-6.22-7.795C105.513,80.004,108.584,76.447,108.584,72.181z M39.474,93.616c-0.019-0.058-0.05-0.109-0.095-0.157
			c-0.076-0.072-0.166-0.109-0.271-0.109c-0.104,0-0.194,0.037-0.266,0.109c-0.047,0.048-0.081,0.1-0.099,0.157l-2.639,6.785
			c-0.022,0.048-0.033,0.102-0.033,0.161c0,0.104,0.037,0.194,0.111,0.269c0.075,0.074,0.164,0.112,0.269,0.112
			c0.105,0,0.194-0.037,0.271-0.11c0.035-0.037,0.061-0.079,0.082-0.123l0.943-2.425h2.724l0.945,2.425
			c0.019,0.044,0.047,0.085,0.084,0.123c0.073,0.073,0.163,0.11,0.266,0.11s0.194-0.038,0.269-0.112
			c0.074-0.074,0.111-0.164,0.111-0.269c0-0.06-0.01-0.113-0.033-0.161L39.474,93.616z M38.041,97.526l1.068-2.748l1.069,2.748
			H38.041z M86.085,109.296c-0.392,0.135-0.602,0.56-0.467,0.951c0.132,0.392,0.558,0.601,0.949,0.468
			c0.316-0.106,0.503-0.404,0.498-0.72c16.493-5.52,26.771-22.433,23.975-39.673c-1.513-9.314-6.537-17.521-14.147-23.107
			c-7.4-5.433-16.437-7.786-25.512-6.681c-0.132-0.286-0.425-0.472-0.755-0.436c-0.412,0.045-0.708,0.416-0.663,0.828
			c0.045,0.412,0.416,0.707,0.828,0.662c0.354-0.038,0.609-0.32,0.647-0.659c8.975-1.086,17.905,1.24,25.217,6.608
			c7.526,5.524,12.495,13.64,13.99,22.85c2.764,17.045-7.396,33.764-23.698,39.225C86.764,109.326,86.42,109.182,86.085,109.296z
			 M124.517,74.851c0.833-1.181,1.326-2.616,1.326-4.167c0-1.535-0.482-2.958-1.298-4.129c-2.05-10.425-7.417-19.978-15.277-27.175
			c0.133-0.285,0.083-0.631-0.157-0.858c-0.3-0.284-0.773-0.271-1.06,0.029c-0.283,0.302-0.271,0.775,0.03,1.059
			c0.257,0.244,0.637,0.255,0.921,0.067c7.599,6.96,12.838,16.14,14.979,26.175c-0.815-0.91-1.855-1.61-3.034-2.018
			c-6.165-22.885-28.861-37.902-52.785-34.017c-13.803,2.239-25.717,10.388-32.838,22.394c-0.308-0.008-0.612,0.13-0.788,0.41
			c-0.262,0.421-0.131,0.976,0.29,1.239c0.421,0.263,0.977,0.133,1.239-0.291c0.197-0.316,0.173-0.706-0.029-0.993
			c7.002-11.779,18.702-19.774,32.255-21.972c23.353-3.794,45.51,10.744,51.753,32.977c-0.471-0.095-0.955-0.146-1.451-0.146h-1.144
			c-4.735-15.559-17.866-27.301-33.879-30.253c-0.033-0.322-0.262-0.6-0.597-0.662c-0.404-0.077-0.797,0.192-0.874,0.598
			c-0.076,0.407,0.192,0.799,0.599,0.874c0.341,0.064,0.657-0.119,0.804-0.416c15.821,2.916,28.808,14.5,33.529,29.859h-5.037
			c-5.237-15.018-19.529-25.826-36.31-25.826c-7.649,0-14.993,2.248-21.314,6.47c-0.286-0.187-0.667-0.196-0.969,0.007
			C53,44.357,52.895,44.9,53.165,45.3c0.27,0.4,0.813,0.505,1.214,0.235c0.304-0.205,0.436-0.567,0.363-0.906
			c6.211-4.148,13.425-6.356,20.941-6.356c20.834,0,37.785,16.95,37.785,37.785c0,7.284-2.087,14.314-6.006,20.404
			c-0.338-0.066-0.697,0.071-0.898,0.379c-0.264,0.404-0.15,0.946,0.255,1.209c0.403,0.263,0.944,0.149,1.208-0.254
			c0.199-0.304,0.183-0.687-0.01-0.968c1.674-2.603,3.014-5.376,4.007-8.265h5.742c-2.673,8.514-7.73,15.977-14.719,21.614
			c-5.847,4.713-12.794,7.892-20.124,9.256c-0.145-0.296-0.463-0.479-0.802-0.416c-0.406,0.076-0.676,0.466-0.6,0.873
			c0.075,0.406,0.468,0.676,0.874,0.6c0.335-0.063,0.566-0.342,0.597-0.665c7.397-1.373,14.405-4.583,20.303-9.335
			c7.085-5.714,12.203-13.285,14.892-21.926h1.989c-1.878,6.633-5.239,12.85-9.807,18.037c-4.967,5.641-11.286,9.991-18.297,12.647
			c-0.242-0.228-0.597-0.317-0.929-0.194c-0.465,0.174-0.697,0.692-0.525,1.157c0.173,0.466,0.692,0.7,1.158,0.526
			c0.326-0.122,0.528-0.416,0.568-0.74c7.139-2.703,13.569-7.127,18.626-12.871c4.693-5.332,8.138-11.735,10.035-18.563h0.244
			c3.999,0,7.25-3.251,7.25-7.25C128.5,78.491,126.875,76.047,124.517,74.851z M113.14,67.421h5.453c1.8,0,3.264,1.464,3.264,3.263
			s-1.464,3.263-3.264,3.263h-4.52C113.948,71.716,113.627,69.538,113.14,67.421z M121.25,84.577h-8.065
			c0.479-2.133,0.761-4.316,0.872-6.526h7.193c1.801,0,3.265,1.464,3.265,3.263C124.515,83.113,123.051,84.577,121.25,84.577z
			 M50.768,88.659h3.986V78.051h4.402v-3.986h-4.402v-6.644h8.138v-3.986H50.768V88.659z M88.306,76.058
			c0-6.959-5.662-12.623-12.623-12.623c-6.96,0-12.622,5.663-12.622,12.623c0,6.959,5.663,12.622,12.622,12.622
			C82.644,88.68,88.306,83.017,88.306,76.058z M75.683,84.694c-4.762,0-8.636-3.874-8.636-8.637c0-4.762,3.874-8.636,8.636-8.636
			s8.637,3.875,8.637,8.636C84.319,80.82,80.444,84.694,75.683,84.694z M43.016,88.66h3.986V63.395h-3.986V88.66z M52.708,112.803
			h-1.519c-0.105,0-0.194,0.037-0.269,0.112c-0.074,0.074-0.111,0.163-0.111,0.269v6.833c0,0.105,0.037,0.194,0.111,0.269
			c0.075,0.074,0.164,0.111,0.269,0.111h1.519c1.047,0,1.941-0.371,2.684-1.113c0.741-0.741,1.112-1.636,1.112-2.684
			s-0.371-1.941-1.112-2.684C54.65,113.174,53.755,112.803,52.708,112.803z M54.854,118.748c-0.592,0.593-1.309,0.891-2.147,0.891
			h-1.139v-6.075h1.139c0.838,0,1.555,0.298,2.147,0.891c0.594,0.593,0.891,1.309,0.891,2.147
			C55.745,117.439,55.449,118.154,54.854,118.748z M48.715,94.11v-0.002c0.105,0,0.194-0.035,0.269-0.111
			c0.074-0.074,0.111-0.163,0.111-0.267c0-0.105-0.037-0.194-0.111-0.269c-0.075-0.075-0.164-0.112-0.269-0.112h-4.556
			c-0.105,0-0.194,0.037-0.269,0.112c-0.074,0.074-0.112,0.163-0.112,0.269v6.833c0,0.105,0.038,0.194,0.112,0.269
			s0.164,0.111,0.269,0.111c0.104,0,0.194-0.037,0.268-0.111s0.112-0.163,0.112-0.269v-3.035h3.037c0.105,0,0.194-0.037,0.269-0.111
			c0.075-0.076,0.112-0.165,0.112-0.269s-0.037-0.194-0.112-0.269c-0.074-0.075-0.163-0.112-0.269-0.112h-3.037V94.11H48.715z
			 M43.426,110.67c0.104,0,0.194-0.038,0.268-0.112c0.075-0.074,0.112-0.163,0.112-0.269v-2.657h1.519
			c0.057,0,0.112-0.001,0.166-0.003l1.779,2.847c0.085,0.13,0.196,0.194,0.332,0.194c0.104,0,0.194-0.038,0.268-0.112
			c0.075-0.074,0.112-0.163,0.112-0.269c0-0.079-0.021-0.146-0.061-0.208l-1.651-2.646c0.24-0.107,0.464-0.265,0.668-0.471
			c0.442-0.443,0.664-0.979,0.664-1.609s-0.222-1.167-0.667-1.611c-0.445-0.445-0.982-0.667-1.612-0.667h-1.898
			c-0.105,0-0.194,0.037-0.269,0.112c-0.074,0.074-0.111,0.163-0.111,0.269v6.832c0,0.105,0.037,0.194,0.111,0.269
			C43.23,110.632,43.322,110.67,43.426,110.67z M43.806,103.835h1.519c0.421,0,0.778,0.147,1.075,0.443s0.444,0.653,0.444,1.076
			c0,0.42-0.147,0.779-0.444,1.075s-0.654,0.443-1.075,0.443h-1.519V103.835z M53.308,100.831c0.075,0.074,0.164,0.112,0.269,0.112
			s0.194-0.038,0.268-0.112c0.075-0.074,0.112-0.164,0.112-0.269v-6.454h2.088c0.105,0,0.194-0.035,0.269-0.111
			c0.075-0.074,0.112-0.163,0.112-0.267c0-0.105-0.037-0.194-0.112-0.269c-0.074-0.075-0.163-0.112-0.269-0.112h-4.936
			c-0.104,0-0.193,0.037-0.268,0.112c-0.074,0.074-0.111,0.163-0.111,0.269c0,0.104,0.037,0.193,0.111,0.267
			c0.075,0.076,0.164,0.111,0.268,0.111h2.089v6.454C53.197,100.667,53.234,100.758,53.308,100.831z"/>
	</g>
</g>
</svg>
