<?xml version="1.0" encoding="utf-8"?>
<!-- Generator: Adobe Illustrator 16.0.0, SVG Export Plug-In . SVG Version: 6.00 Build 0)  -->
<!DOCTYPE svg PUBLIC "-//W3C//DTD SVG 1.1//EN" "http://www.w3.org/Graphics/SVG/1.1/DTD/svg11.dtd">
<svg version="1.1" id="Layer_1" xmlns="http://www.w3.org/2000/svg" xmlns:xlink="http://www.w3.org/1999/xlink" x="0px" y="0px"
	 width="226.77px" height="177.165px" viewBox="0 0 226.77 177.165" enable-background="new 0 0 226.77 177.165"
	 xml:space="preserve">
<g>
	<path fill="#FFFFFF" d="M41.866,107.276h-7.581v-5.894h7.581c7.041,0,12.769-5.729,12.769-12.769
		c0-7.041-5.729-12.769-12.769-12.769h-7.581v-5.893h7.581c10.291,0,18.663,8.372,18.663,18.662
		C60.529,98.904,52.159,107.276,41.866,107.276z"/>
</g>
<g>
	<rect x="66.096" y="69.888" fill="#FFFFFF" width="5.894" height="37.357"/>
</g>
<polygon fill="#FFFFFF" points="95.482,75.845 95.482,69.952 77.556,69.952 77.556,107.246 83.45,107.246 83.45,91.56 89.959,91.56 
	89.959,85.667 83.45,85.667 83.45,75.845 "/>
<g>
	<path fill="#FFFFFF" d="M114.392,107.276c-10.289,0-18.662-8.372-18.662-18.662c0-10.291,8.374-18.662,18.662-18.662
		c10.29,0,18.662,8.372,18.662,18.662C133.054,98.904,124.684,107.276,114.392,107.276z M114.392,75.845
		c-7.041,0-12.769,5.729-12.769,12.769c0,7.04,5.729,12.769,12.769,12.769c7.04,0,12.769-5.729,12.769-12.769
		C127.16,81.573,121.432,75.845,114.392,75.845z"/>
</g>
<g>
	<path fill="#FFFFFF" d="M114.392,107.276c-10.289,0-18.662-8.372-18.662-18.662c0-10.291,8.374-18.662,18.662-18.662
		c10.29,0,18.662,8.372,18.662,18.662C133.054,98.904,124.684,107.276,114.392,107.276z M114.392,75.845
		c-7.041,0-12.769,5.729-12.769,12.769c0,7.04,5.729,12.769,12.769,12.769c7.04,0,12.769-5.729,12.769-12.769
		C127.16,81.573,121.432,75.845,114.392,75.845z"/>
</g>
<path fill="#FFFFFF" d="M161.707,107.103l-9.195-11.525c5.985-1.13,10.528-6.389,10.528-12.696c0-7.128-5.801-12.93-12.93-12.93
	h-11.487v5.893h11.487c3.881,0,7.036,3.155,7.036,7.037c0,3.879-3.155,7.035-7.036,7.035h-5.569v-0.002h-5.894v17.331h5.894V95.811
	l9.003,11.292H161.707z"/>
<path fill="#FFFFFF" d="M186.594,86.828c1.23-1.747,1.961-3.868,1.961-6.16c0-5.911-4.808-10.718-10.72-10.718h-10.689
	c0.681,1.919,1.255,3.888,1.725,5.893h8.965c2.661,0,4.826,2.165,4.826,4.825c0,2.66-2.165,4.824-4.826,4.824h-7.57
	c0.058,1.034,0.092,2.073,0.092,3.12c0,0.988-0.026,1.97-0.078,2.946h11.487c2.661,0,4.826,2.166,4.826,4.825
	s-2.165,4.822-4.826,4.822H168.91c-0.462,2.007-1.03,3.976-1.705,5.894h14.561c5.912,0,10.72-4.806,10.72-10.716
	C192.484,92.212,190.084,88.597,186.594,86.828z"/>
</svg>
