<svg fill="#ffffff" version="1.1" id="Layer_1" xmlns="http://www.w3.org/2000/svg" xmlns:xlink="http://www.w3.org/1999/xlink" x="0px" y="0px"
	 width="150px" height="150px" viewBox="0 0 93.5 82" enable-background="new 0 0 93.5 82" xml:space="preserve">
<g>
	<path d="M10.344,32.296h-3.86v3h3.86c3.584,0,6.5,2.916,6.5,6.5s-2.916,6.5-6.5,6.5h-3.86v3h3.86c5.238,0,9.5-4.262,9.5-9.5
		S15.583,32.296,10.344,32.296z"/>
	<rect x="22.678" y="32.265" width="3" height="19.016"/>
	<polygon points="28.512,51.28 31.512,51.28 31.512,43.296 34.825,43.296 34.825,40.296 31.512,40.296 31.512,35.296 37.637,35.296
		37.637,32.296 28.512,32.296 	"/>
	<path d="M56.764,41.796c0-5.238-4.262-9.5-9.5-9.5c-5.239,0-9.5,4.262-9.5,9.5s4.262,9.5,9.5,9.5
		C52.502,51.296,56.764,47.034,56.764,41.796z M47.264,48.296c-3.584,0-6.5-2.916-6.5-6.5s2.916-6.5,6.5-6.5
		c3.584,0,6.5,2.916,6.5,6.5S50.848,48.296,47.264,48.296z"/>
	<path d="M72.027,38.878c0-3.629-2.953-6.582-6.582-6.582H59.6v3h5.846c1.977,0,3.582,1.606,3.582,3.582
		c0,1.975-1.605,3.581-3.582,3.581h-2.834v-0.001h-3v8.822h3v-5.82l4.582,5.748h4.156l-4.682-5.867
		C69.715,44.766,72.027,42.089,72.027,38.878z"/>
	<path d="M84.018,40.888c0.627-0.889,0.998-1.969,0.998-3.136c0-1.155-0.363-2.226-0.977-3.108
		c-1.543-7.846-5.582-15.036-11.498-20.453c0.1-0.214,0.062-0.475-0.119-0.646c-0.225-0.214-0.582-0.204-0.797,0.022
		c-0.213,0.227-0.203,0.583,0.023,0.797c0.193,0.184,0.479,0.192,0.693,0.051c5.719,5.238,9.662,12.147,11.273,19.7
		c-0.613-0.685-1.396-1.212-2.283-1.519C76.691,15.372,59.609,4.07,41.603,6.994c-10.389,1.685-19.356,7.818-24.715,16.854
		c-0.232-0.006-0.461,0.098-0.593,0.309c-0.197,0.317-0.099,0.734,0.218,0.932s0.735,0.1,0.932-0.219
		c0.148-0.238,0.13-0.531-0.022-0.747c5.27-8.865,14.076-14.883,24.276-16.537C59.275,4.73,75.951,15.672,80.65,32.405
		c-0.354-0.071-0.719-0.109-1.092-0.109h-0.861c-3.564-11.71-13.447-20.548-25.498-22.77c-0.025-0.242-0.197-0.451-0.449-0.498
		c-0.305-0.058-0.6,0.145-0.658,0.45c-0.057,0.306,0.145,0.601,0.451,0.658c0.256,0.048,0.494-0.09,0.604-0.313
		c11.908,2.194,21.682,10.913,25.236,22.473h-3.791C70.65,20.993,59.893,12.858,47.264,12.858c-5.757,0-11.284,1.692-16.042,4.87
		c-0.215-0.141-0.502-0.148-0.729,0.005c-0.301,0.204-0.38,0.613-0.177,0.914s0.612,0.38,0.914,0.177
		c0.229-0.154,0.328-0.427,0.273-0.682c4.675-3.122,10.104-4.784,15.761-4.784c15.68,0,28.438,12.757,28.438,28.438
		c0,5.482-1.57,10.773-4.52,15.357c-0.254-0.05-0.525,0.054-0.676,0.285c-0.199,0.304-0.113,0.712,0.191,0.91
		s0.711,0.113,0.91-0.191c0.15-0.229,0.137-0.517-0.008-0.729c1.26-1.959,2.268-4.045,3.016-6.22h4.322
		c-2.012,6.408-5.818,12.025-11.078,16.268c-4.4,3.547-9.629,5.939-15.146,6.966c-0.109-0.223-0.348-0.36-0.604-0.313
		c-0.305,0.057-0.508,0.351-0.451,0.657s0.352,0.509,0.658,0.451c0.252-0.047,0.426-0.257,0.449-0.5
		c5.568-1.034,10.842-3.449,15.281-7.026c5.332-4.3,9.184-9.999,11.207-16.502h1.498c-1.414,4.992-3.943,9.671-7.381,13.575
		c-3.738,4.246-8.494,7.52-13.771,9.519c-0.182-0.171-0.449-0.239-0.699-0.146c-0.35,0.131-0.525,0.521-0.395,0.871
		s0.521,0.527,0.871,0.396c0.246-0.092,0.398-0.313,0.428-0.557c5.373-2.034,10.213-5.364,14.018-9.687
		c3.533-4.013,6.125-8.833,7.553-13.972h0.184c3.01,0,5.457-2.447,5.457-5.456C87.016,43.628,85.793,41.788,84.018,40.888z
		 M75.455,35.296h4.104c1.355,0,2.457,1.102,2.457,2.456s-1.102,2.456-2.457,2.456h-3.402
		C76.064,38.528,75.822,36.889,75.455,35.296z M81.559,48.208h-6.07c0.361-1.605,0.572-3.249,0.656-4.912h5.414
		c1.355,0,2.457,1.102,2.457,2.456S82.914,48.208,81.559,48.208z"/>
	<path d="M73.875,37.479c-1.139-7.01-4.92-13.187-10.648-17.391c-5.57-4.089-12.371-5.86-19.201-5.028
		c-0.099-0.215-0.32-0.355-0.568-0.328c-0.31,0.034-0.533,0.313-0.499,0.623s0.313,0.532,0.623,0.498
		c0.266-0.029,0.458-0.241,0.487-0.496c6.755-0.818,13.476,0.933,18.979,4.973c5.664,4.158,9.404,10.266,10.529,17.198
		c2.08,12.828-5.566,25.412-17.836,29.522c-0.137-0.215-0.396-0.324-0.648-0.238c-0.295,0.101-0.453,0.421-0.352,0.716
		c0.1,0.295,0.42,0.452,0.715,0.352c0.238-0.08,0.379-0.304,0.375-0.542C68.244,63.184,75.979,50.455,73.875,37.479z"/>
	<path d="M9.419,55.382c0.538,0,1.008,0.162,1.411,0.486c0.057,0.057,0.125,0.085,0.204,0.085c0.078,0,0.146-0.027,0.202-0.084
		c0.056-0.056,0.084-0.123,0.084-0.201c0-0.079-0.027-0.146-0.083-0.204c-0.531-0.436-1.137-0.653-1.818-0.653
		c-0.788,0-1.461,0.279-2.02,0.838c-0.559,0.559-0.838,1.231-0.838,2.02s0.279,1.462,0.838,2.02c0.558,0.559,1.231,0.838,2.02,0.838
		c0.667,0,1.266-0.212,1.797-0.636c0.055-0.055,0.082-0.121,0.082-0.2c0-0.078-0.028-0.146-0.084-0.201
		c-0.056-0.057-0.123-0.084-0.202-0.084c-0.062,0-0.117,0.017-0.165,0.05c-0.407,0.333-0.883,0.5-1.429,0.5
		c-0.631,0-1.169-0.224-1.616-0.67c-0.446-0.446-0.669-0.985-0.669-1.616s0.223-1.17,0.669-1.616
		C8.25,55.605,8.788,55.382,9.419,55.382z"/>
	<path d="M15.935,56.525c0-0.475-0.167-0.878-0.502-1.213s-0.739-0.502-1.213-0.502h-1.429c-0.079,0-0.146,0.028-0.202,0.084
		s-0.084,0.123-0.084,0.202v5.143c0,0.079,0.028,0.146,0.084,0.202s0.123,0.084,0.202,0.084s0.146-0.028,0.202-0.084
		c0.056-0.056,0.084-0.123,0.084-0.202v-2h1.143c0.043,0,0.084-0.001,0.125-0.003l1.339,2.143c0.064,0.098,0.148,0.146,0.25,0.146
		c0.078,0,0.146-0.028,0.202-0.084c0.056-0.056,0.084-0.123,0.084-0.202c0-0.06-0.016-0.111-0.046-0.157l-1.243-1.992
		c0.181-0.081,0.349-0.199,0.503-0.354C15.768,57.402,15.935,56.999,15.935,56.525z M15.029,57.334
		c-0.223,0.223-0.492,0.334-0.809,0.334h-1.143v-2.286h1.143c0.317,0,0.586,0.111,0.809,0.334s0.334,0.492,0.334,0.81
		C15.363,56.842,15.252,57.111,15.029,57.334z"/>
	<path d="M20.012,55.011c-0.014-0.043-0.038-0.082-0.071-0.118c-0.057-0.055-0.125-0.082-0.204-0.082s-0.146,0.027-0.2,0.082
		c-0.036,0.036-0.061,0.075-0.075,0.118l-1.986,5.107c-0.017,0.036-0.025,0.076-0.025,0.121c0,0.079,0.028,0.146,0.084,0.202
		s0.123,0.084,0.202,0.084s0.146-0.027,0.204-0.082c0.026-0.028,0.046-0.06,0.061-0.093l0.71-1.825h2.05l0.711,1.825
		c0.014,0.033,0.036,0.064,0.064,0.093c0.055,0.055,0.122,0.082,0.2,0.082s0.146-0.028,0.202-0.084
		c0.056-0.056,0.084-0.123,0.084-0.202c0-0.045-0.008-0.085-0.025-0.121L20.012,55.011z M18.933,57.954l0.804-2.068l0.804,2.068
		H18.933z"/>
	<path d="M26.967,55.382c0.079,0,0.146-0.027,0.202-0.084c0.056-0.056,0.084-0.123,0.084-0.201c0-0.079-0.028-0.146-0.084-0.202
		s-0.123-0.084-0.202-0.084h-3.429c-0.079,0-0.146,0.028-0.202,0.084s-0.084,0.123-0.084,0.202v5.143
		c0,0.079,0.028,0.146,0.084,0.202s0.123,0.084,0.202,0.084s0.146-0.028,0.202-0.084c0.056-0.056,0.084-0.123,0.084-0.202v-2.285
		h2.286c0.079,0,0.146-0.028,0.202-0.084c0.056-0.057,0.084-0.124,0.084-0.202s-0.028-0.146-0.084-0.202
		c-0.056-0.056-0.123-0.084-0.202-0.084h-2.286v-2H26.967z"/>
	<path d="M30.424,60.441c0.056,0.056,0.123,0.084,0.202,0.084s0.146-0.028,0.202-0.084c0.056-0.056,0.084-0.123,0.084-0.202v-4.857
		h1.572c0.079,0,0.146-0.027,0.202-0.084c0.056-0.056,0.084-0.123,0.084-0.201c0-0.079-0.028-0.146-0.084-0.202
		c-0.056-0.056-0.123-0.084-0.202-0.084h-3.715c-0.079,0-0.146,0.028-0.202,0.084s-0.084,0.123-0.084,0.202
		c0,0.078,0.028,0.146,0.084,0.201c0.056,0.057,0.123,0.084,0.202,0.084h1.572v4.857C30.34,60.318,30.368,60.386,30.424,60.441z"/>
	<path d="M10.771,62.215c-0.056-0.056-0.123-0.084-0.202-0.084c-0.098,0-0.175,0.039-0.232,0.118l-1.482,2.222l-1.482-2.222
		c-0.057-0.079-0.135-0.118-0.232-0.118c-0.079,0-0.146,0.028-0.202,0.084s-0.084,0.123-0.084,0.202c0,0.06,0.016,0.112,0.046,0.16
		l1.668,2.497v2.485c0,0.079,0.028,0.146,0.084,0.202c0.056,0.056,0.124,0.084,0.202,0.084c0.078,0,0.146-0.028,0.202-0.084
		c0.056-0.056,0.084-0.123,0.084-0.202v-2.485l1.668-2.497c0.031-0.048,0.046-0.101,0.046-0.16
		C10.854,62.338,10.827,62.271,10.771,62.215z"/>
	<path d="M13.676,67.846c0.788,0,1.461-0.279,2.02-0.838c0.558-0.558,0.837-1.231,0.837-2.02s-0.279-1.461-0.837-2.02
		c-0.559-0.559-1.232-0.838-2.02-0.838s-1.461,0.279-2.02,0.838c-0.559,0.559-0.838,1.231-0.838,2.02s0.279,1.462,0.838,2.02
		C12.215,67.566,12.888,67.846,13.676,67.846z M12.06,63.372c0.447-0.446,0.985-0.67,1.616-0.67s1.17,0.224,1.616,0.67
		c0.447,0.446,0.67,0.985,0.67,1.616s-0.223,1.17-0.67,1.616c-0.446,0.446-0.985,0.67-1.616,0.67s-1.169-0.224-1.616-0.67
		c-0.446-0.446-0.669-0.985-0.669-1.616S11.614,63.818,12.06,63.372z"/>
	<path d="M17.958,62.215c-0.056-0.056-0.124-0.084-0.202-0.084s-0.146,0.028-0.202,0.084s-0.084,0.123-0.084,0.202v3.429
		c0,0.553,0.195,1.023,0.586,1.414s0.862,0.586,1.415,0.586c0.552,0,1.023-0.195,1.414-0.586s0.586-0.861,0.586-1.414v-3.429
		c0-0.079-0.028-0.146-0.084-0.202s-0.123-0.084-0.202-0.084s-0.146,0.028-0.202,0.084c-0.056,0.056-0.083,0.123-0.083,0.202v3.429
		c0,0.396-0.14,0.732-0.418,1.011c-0.279,0.278-0.616,0.418-1.011,0.418c-0.396,0-0.732-0.14-1.011-0.418
		c-0.278-0.278-0.417-0.615-0.417-1.011v-3.429C18.042,62.338,18.014,62.271,17.958,62.215z"/>
	<path d="M22.986,67.846c0.079,0,0.146-0.028,0.202-0.084c0.056-0.056,0.084-0.123,0.084-0.202v-2h1.143
		c0.043,0,0.084-0.001,0.125-0.003l1.339,2.143c0.064,0.098,0.148,0.146,0.25,0.146c0.078,0,0.146-0.028,0.202-0.084
		c0.056-0.056,0.084-0.123,0.084-0.202c0-0.06-0.016-0.111-0.046-0.157l-1.243-1.992c0.181-0.081,0.349-0.199,0.503-0.354
		c0.333-0.334,0.5-0.737,0.5-1.211c0-0.475-0.167-0.878-0.502-1.213s-0.739-0.502-1.213-0.502h-1.429
		c-0.079,0-0.146,0.028-0.202,0.084s-0.084,0.123-0.084,0.202v5.143c0,0.079,0.028,0.146,0.084,0.202S22.908,67.846,22.986,67.846z
		 M23.272,62.702h1.143c0.317,0,0.586,0.111,0.809,0.334s0.334,0.492,0.334,0.81c0,0.316-0.111,0.586-0.334,0.809
		s-0.492,0.334-0.809,0.334h-1.143V62.702z"/>
	<path d="M8.201,71.741c-0.233-0.019-0.427-0.118-0.581-0.3c-0.153-0.181-0.221-0.389-0.202-0.625c0.019-0.233,0.119-0.427,0.3-0.58
		c0.181-0.153,0.39-0.221,0.625-0.202c0.233,0.02,0.428,0.119,0.583,0.3c0.045,0.06,0.089,0.118,0.132,0.176
		c0.043,0.057,0.11,0.085,0.2,0.085c0.079,0,0.146-0.027,0.202-0.084c0.056-0.056,0.084-0.123,0.084-0.201
		c0-0.058-0.014-0.108-0.043-0.153c-0.041-0.067-0.087-0.131-0.139-0.193c-0.31-0.341-0.671-0.511-1.086-0.511
		c-0.35,0-0.659,0.115-0.929,0.347c-0.3,0.255-0.466,0.578-0.5,0.972c-0.031,0.395,0.081,0.742,0.336,1.043
		c0.255,0.3,0.579,0.467,0.972,0.5c0.316,0.026,0.577,0.158,0.78,0.397c0.204,0.24,0.292,0.518,0.266,0.835
		c-0.026,0.313-0.16,0.573-0.4,0.776c-0.241,0.203-0.518,0.294-0.833,0.27c-0.316-0.026-0.576-0.16-0.778-0.403
		c-0.038-0.041-0.072-0.083-0.1-0.129c-0.06-0.088-0.141-0.132-0.243-0.132c-0.079,0-0.146,0.028-0.202,0.084
		s-0.084,0.123-0.084,0.201c0,0.064,0.019,0.122,0.057,0.172c0.041,0.062,0.086,0.12,0.136,0.175
		c0.369,0.405,0.81,0.607,1.322,0.607c0.409,0,0.775-0.137,1.096-0.411c0.36-0.305,0.559-0.692,0.597-1.164
		c0.005-0.055,0.007-0.109,0.007-0.164c0-0.405-0.135-0.767-0.404-1.086C9.065,71.982,8.675,71.782,8.201,71.741z"/>
	<path d="M13.863,69.452c-0.788,0-1.461,0.279-2.02,0.838c-0.559,0.559-0.838,1.231-0.838,2.02s0.279,1.462,0.838,2.02
		c0.558,0.559,1.231,0.838,2.02,0.838s1.461-0.279,2.02-0.838c0.558-0.558,0.837-1.231,0.837-2.02s-0.279-1.461-0.837-2.02
		C15.325,69.731,14.651,69.452,13.863,69.452z M15.479,73.926c-0.446,0.446-0.985,0.67-1.616,0.67s-1.169-0.224-1.616-0.67
		c-0.446-0.446-0.669-0.985-0.669-1.616s0.223-1.17,0.669-1.616c0.447-0.446,0.985-0.67,1.616-0.67s1.17,0.224,1.616,0.67
		c0.447,0.446,0.67,0.985,0.67,1.616S15.926,73.479,15.479,73.926z"/>
	<path d="M21.227,69.452c-0.079,0-0.146,0.028-0.202,0.084c-0.056,0.056-0.083,0.123-0.083,0.202v3.429
		c0,0.396-0.14,0.732-0.418,1.011c-0.279,0.278-0.616,0.418-1.011,0.418c-0.396,0-0.732-0.14-1.011-0.418
		c-0.278-0.278-0.417-0.615-0.417-1.011v-3.429c0-0.079-0.028-0.146-0.084-0.202c-0.056-0.056-0.124-0.084-0.202-0.084
		s-0.146,0.028-0.202,0.084s-0.084,0.123-0.084,0.202v3.429c0,0.553,0.195,1.023,0.586,1.414s0.862,0.586,1.415,0.586
		c0.552,0,1.023-0.195,1.414-0.586s0.586-0.861,0.586-1.414v-3.429c0-0.079-0.028-0.146-0.084-0.202S21.305,69.452,21.227,69.452z"
		/>
	<path d="M27.028,69.452c-0.079,0-0.146,0.028-0.202,0.084c-0.056,0.056-0.084,0.123-0.084,0.202v4.311l-3.493-4.493
		c-0.062-0.069-0.136-0.104-0.222-0.104c-0.079,0-0.146,0.028-0.202,0.084s-0.084,0.123-0.084,0.202v5.143
		c0,0.079,0.028,0.146,0.084,0.202s0.123,0.084,0.202,0.084s0.146-0.028,0.202-0.084c0.056-0.056,0.084-0.123,0.084-0.202v-4.308
		l3.5,4.501c0.06,0.062,0.131,0.093,0.214,0.093c0.079,0,0.146-0.028,0.202-0.084c0.056-0.056,0.084-0.123,0.084-0.202v-5.143
		c0-0.079-0.028-0.146-0.084-0.202C27.174,69.48,27.106,69.452,27.028,69.452z"/>
	<path d="M29.972,69.452h-1.143c-0.079,0-0.146,0.028-0.202,0.084s-0.084,0.123-0.084,0.202v5.143c0,0.079,0.028,0.146,0.084,0.202
		s0.123,0.084,0.202,0.084h1.143c0.788,0,1.461-0.279,2.02-0.838c0.558-0.558,0.837-1.231,0.837-2.02s-0.279-1.461-0.837-2.02
		C31.434,69.731,30.76,69.452,29.972,69.452z M31.588,73.926c-0.446,0.446-0.985,0.67-1.616,0.67h-0.857v-4.572h0.857
		c0.631,0,1.17,0.224,1.616,0.67c0.447,0.446,0.67,0.985,0.67,1.616S32.035,73.479,31.588,73.926z"/>
</g>
</svg>
