<?xml version="1.0" encoding="utf-8"?>
<!-- Generator: Adobe Illustrator 16.0.0, SVG Export Plug-In . SVG Version: 6.00 Build 0)  -->
<!DOCTYPE svg PUBLIC "-//W3C//DTD SVG 1.1//EN" "http://www.w3.org/Graphics/SVG/1.1/DTD/svg11.dtd">
<svg version="1.1" id="Layer_1" xmlns="http://www.w3.org/2000/svg" xmlns:xlink="http://www.w3.org/1999/xlink" x="0px" y="0px"
	 width="156.1px" height="26.188px" viewBox="35.336 75.473 156.1 26.188" enable-background="new 35.336 75.473 156.1 26.188"
	 xml:space="preserve">
<path fill="#3C5CA3" d="M76.342,100.197c0,0.809-0.656,1.465-1.465,1.465H36.801c-0.809,0-1.465-0.656-1.465-1.465V76.938
	c0-0.809,0.656-1.465,1.465-1.465h38.076c0.809,0,1.465,0.656,1.465,1.465V100.197z"/>
<path fill="#3D5DA4" d="M133.889,83.355c0,0.809-0.656,1.465-1.466,1.465H94.347c-0.809,0-1.465-0.656-1.465-1.465v-6.417
	c0-0.809,0.656-1.465,1.465-1.465h38.076c0.81,0,1.466,0.656,1.466,1.465V83.355z"/>
<path fill="#F8D33B" d="M133.889,100.197c0,0.809-0.656,1.465-1.466,1.465H94.347c-0.809,0-1.465-0.656-1.465-1.465v-6.072
	c0-0.809,0.656-1.465,1.465-1.465h38.076c0.81,0,1.466,0.656,1.466,1.465V100.197z"/>
<rect x="92.882" y="84.087" fill="#F7F8F8" width="41.007" height="9.304"/>
<path fill="#357EA5" d="M189.97,75.473h-38.075c-0.81,0-1.466,0.656-1.466,1.465v23.258c0,0.809,0.656,1.465,1.466,1.465h38.075
	c0.81,0,1.466-0.656,1.466-1.465V76.938C191.436,76.129,190.78,75.473,189.97,75.473z"/>
<path fill="#3D5EA4" d="M124.24,88.624c0,0.54-0.438,0.979-0.978,0.979h-19.753c-0.54,0-0.978-0.438-0.978-0.979l0,0
	c0-0.54,0.438-0.978,0.978-0.978h19.753C123.801,87.646,124.24,88.084,124.24,88.624L124.24,88.624z"/>
<g>
	<path fill="#E26B6C" d="M55.634,84.813c-1.302-2.102-3.623-3.506-6.276-3.506c-4.08,0-7.386,3.307-7.386,7.386
		c0,4.08,3.307,7.386,7.386,7.386c2.654,0,4.975-1.404,6.276-3.506c-0.699-1.128-1.11-2.454-1.11-3.88
		C54.524,87.268,54.934,85.941,55.634,84.813z"/>
	<path fill="#F8D07B" d="M61.91,81.307c-2.654,0-4.975,1.404-6.277,3.506c0.699,1.128,1.11,2.455,1.11,3.88
		c0,1.426-0.411,2.752-1.11,3.88c1.302,2.102,3.623,3.506,6.277,3.506c4.079,0,7.386-3.306,7.386-7.386
		C69.297,84.614,65.99,81.307,61.91,81.307z"/>
</g>
<path fill="#F7F8F8" d="M64.879,88.692c0,0.45-0.365,0.814-0.814,0.814H47.613c-0.45,0-0.814-0.364-0.814-0.814l0,0
	c0-0.449,0.364-0.813,0.814-0.813h16.451C64.514,87.878,64.879,88.243,64.879,88.692L64.879,88.692z"/>
<path fill="#F7F8F8" d="M176.719,90.291h-12.124c-0.705,0-1.276-0.571-1.276-1.276c0-0.705,0.571-1.276,1.276-1.276h12.124
	c0.705,0,1.276,0.571,1.276,1.276C177.995,89.719,177.424,90.291,176.719,90.291z"/>
</svg>
