<svg version="1.1" fill="white" xmlns="http://www.w3.org/2000/svg" xmlns:xlink="http://www.w3.org/1999/xlink" x="0px" y="0px" width="158.2px" height="37.358px" viewBox="34.285 69.888 158.2 37.358" enable-background="new 34.285 69.888 158.2 37.358" xml:space="preserve">
	<g>
		<path d="M41.866,107.276h-7.581v-5.895h7.581c7.041,0,12.769-5.729,12.769-12.769
			c0-7.041-5.729-12.769-12.769-12.769h-7.581v-5.893h7.581c10.291,0,18.662,8.372,18.662,18.662
			C60.529,98.904,52.159,107.276,41.866,107.276z"/>
	</g>
	<g>
		<rect x="66.096" y="69.888" width="5.894" height="37.356"/>
	</g>
	<polygon points="95.482,75.845 95.482,69.952 77.556,69.952 77.556,107.247 83.45,107.247 83.45,91.56 89.959,91.56
		89.959,85.667 83.45,85.667 83.45,75.845 "/>
	<g>
		<path d="M114.392,107.276c-10.289,0-18.662-8.372-18.662-18.662c0-10.291,8.374-18.662,18.662-18.662
			c10.29,0,18.662,8.372,18.662,18.662C133.054,98.904,124.684,107.276,114.392,107.276z M114.392,75.845
			c-7.041,0-12.769,5.729-12.769,12.769c0,7.04,5.729,12.769,12.769,12.769s12.77-5.729,12.77-12.769
			C127.16,81.573,121.432,75.845,114.392,75.845z"/>
	</g>
	<g>
		<path d="M114.392,107.276c-10.289,0-18.662-8.372-18.662-18.662c0-10.291,8.374-18.662,18.662-18.662
			c10.29,0,18.662,8.372,18.662,18.662C133.054,98.904,124.684,107.276,114.392,107.276z M114.392,75.845
			c-7.041,0-12.769,5.729-12.769,12.769c0,7.04,5.729,12.769,12.769,12.769s12.77-5.729,12.77-12.769
			C127.16,81.573,121.432,75.845,114.392,75.845z"/>
	</g>
	<path d="M161.707,107.103l-9.195-11.524c5.985-1.131,10.528-6.39,10.528-12.697c0-7.128-5.802-12.93-12.931-12.93
		h-11.486v5.893h11.486c3.882,0,7.036,3.155,7.036,7.037c0,3.879-3.154,7.035-7.036,7.035h-5.568v-0.002h-5.895v17.332h5.895V95.811
		l9.003,11.292H161.707z"/>
	<path d="M186.594,86.828c1.23-1.747,1.961-3.868,1.961-6.16c0-5.911-4.808-10.718-10.72-10.718h-10.689
		c0.682,1.919,1.255,3.888,1.726,5.893h8.965c2.661,0,4.826,2.165,4.826,4.825s-2.165,4.824-4.826,4.824h-7.57
		c0.059,1.034,0.092,2.073,0.092,3.12c0,0.988-0.025,1.971-0.078,2.946h11.487c2.661,0,4.826,2.166,4.826,4.825
		c0,2.658-2.165,4.822-4.826,4.822H168.91c-0.463,2.006-1.03,3.976-1.705,5.894h14.561c5.912,0,10.72-4.806,10.72-10.716
		C192.484,92.211,190.084,88.597,186.594,86.828z"/>
</svg>
